/* XPM */
static char *result[] = {
/* columns rows colors chars-per-pixel */
"50 50 230 2 ",
"   c #446C14",
".  c #78552A",
"X  c #586F33",
"o  c #4D6D28",
"O  c #637D3E",
"+  c #70753A",
"@  c #70704E",
"#  c #687D4E",
"$  c #8A0000",
"%  c #900000",
"&  c #8A001B",
"*  c #892A1D",
"=  c #940028",
"-  c #8A0025",
";  c #A30E22",
":  c #982838",
">  c #8E3031",
",  c #95363A",
"<  c #8C2C2B",
"1  c #C12F3F",
"2  c #97433C",
"3  c #8A4B34",
"4  c #8C6937",
"5  c #953F40",
"6  c #AA3640",
"7  c #B43B4B",
"8  c #B33E50",
"9  c #C53743",
"0  c #934C50",
"q  c #A74546",
"w  c #B8444A",
"e  c #A85A4A",
"r  c #B94B52",
"t  c #A65B55",
"y  c #A85954",
"u  c #B85A58",
"i  c #AE4952",
"p  c #9F6159",
"a  c #AA6443",
"s  c #AC6A58",
"d  c #B46858",
"f  c #A2755D",
"g  c #A2795F",
"h  c #99676F",
"j  c #BA6164",
"k  c #A37B63",
"l  c #BB7469",
"z  c #B37473",
"x  c #C44653",
"c  c #C84652",
"v  c #C54953",
"b  c #CA4A54",
"n  c #C95555",
"m  c #D35C59",
"M  c #CA504C",
"N  c #D36358",
"B  c #C06E59",
"V  c #D36D69",
"C  c #C77766",
"Z  c #D6746A",
"A  c #D87667",
"S  c #D57D73",
"D  c #CB726E",
"F  c #E17F72",
"G  c #6B8937",
"H  c #7F8E3D",
"J  c #77973B",
"K  c #6C8640",
"L  c #779642",
"P  c #7C8642",
"I  c #868F3F",
"U  c #86894B",
"Y  c #809F40",
"T  c #908F56",
"R  c #AC8162",
"E  c #AE8268",
"W  c #B3846A",
"Q  c #B98968",
"!  c #AC8A74",
"~  c #BB8A74",
"^  c #BA987A",
"/  c #AE986E",
"(  c #C68867",
")  c #DD806C",
"_  c #C6966E",
"`  c #C98877",
"'  c #D98B7A",
"]  c #C59671",
"[  c #C99771",
"{  c #C69871",
"}  c #CA9A74",
"|  c #C89779",
" . c #D59377",
".. c #E18A7A",
"X. c #D5A47A",
"o. c #D9A67B",
"O. c #DAA97D",
"+. c #D2A97F",
"@. c #CBA47E",
"#. c #E3AD7F",
"$. c #BC9586",
"%. c #BB9898",
"&. c #B78D82",
"*. c #BEA29C",
"=. c #CB8B82",
"-. c #D68881",
";. c #CB9C89",
":. c #D49887",
">. c #C99B94",
",. c #E69A87",
"<. c #C4AC8C",
"1. c #C7A889",
"2. c #DAAC83",
"3. c #DBAD8C",
"4. c #D2A884",
"5. c #DCB184",
"6. c #DCB48D",
"7. c #DAB78E",
"8. c #C4AC92",
"9. c #DEA295",
"0. c #D7AD99",
"q. c #CBB596",
"w. c #D3B593",
"e. c #DDB692",
"r. c #D7B995",
"t. c #DCBB95",
"y. c #D7BB9E",
"u. c #DDBC9B",
"i. c #D9B59D",
"p. c #E9A78A",
"a. c #E3B484",
"s. c #E1B58D",
"d. c #E6BA8C",
"f. c #E1B887",
"g. c #E9A794",
"h. c #E2BC94",
"j. c #E9BE91",
"k. c #E2BE9C",
"l. c #E7B69C",
"z. c #F2AC96",
"x. c #CBA9A2",
"c. c #CDB2AA",
"v. c #DCBDA3",
"b. c #D3B6AB",
"n. c #D8B8A4",
"m. c #CDB8BB",
"M. c #D6AFA7",
"N. c #E2BAA2",
"B. c #F3B8A3",
"V. c #E6BFB0",
"C. c #DDC09C",
"Z. c #DFC096",
"A. c #E6C194",
"S. c #EAC395",
"D. c #E4C29B",
"F. c #EBC69A",
"G. c #ECCB9D",
"H. c #E2C89F",
"J. c #F0CC9E",
"K. c #DEC2A4",
"L. c #DCC4AA",
"P. c #DBC6A3",
"I. c #DEC8B3",
"U. c #E2C3A4",
"Y. c #E4CBA5",
"T. c #ECCDA2",
"R. c #E3C5AB",
"E. c #E4CBAF",
"W. c #EBCDAA",
"Q. c #EAC5A1",
"!. c #EDD1A5",
"~. c #E7D2AA",
"^. c #EDD4AC",
"/. c #EBDAAE",
"(. c #F1D0A3",
"). c #F1D4AD",
"_. c #F4D9AE",
"`. c #E4CCB3",
"'. c #EBCDB4",
"]. c #E2CCBA",
"[. c #EACEBB",
"{. c #F8CAB7",
"}. c #EDD4B3",
"|. c #EEDAB3",
" X c #E5D1BB",
".X c #ECD3BB",
"XX c #E9D6B6",
"oX c #F3DCB3",
"OX c #F2D8B8",
"+X c #F3E4BD",
"@X c #F8E4BC",
"#X c #F4E5BA",
"$X c #CDBBC4",
"%X c #DCCDC8",
"&X c #E1CAC0",
"*X c #EAD5C4",
"=X c #EDDAC5",
"-X c #E3D3CC",
";X c #EBD5CB",
":X c #ECDBCC",
">X c #E7D6C4",
",X c #F2DAC4",
"<X c #F2DCCA",
"1X c #F8D7CB",
"2X c #EDDED1",
"3X c #E6DCD3",
"4X c #F4DAD3",
"5X c #F7DED5",
"6X c #F2CDC4",
"7X c #EEE1CE",
"8X c #F6E6C1",
"9X c #F6E9C2",
"0X c #F9E7C1",
"qX c #EEE3D8",
"wX c #F2E2D4",
"eX c #F2E5DB",
"rX c #F1E8DC",
"tX c #F1E5E1",
"yX c #F4EAE3",
"uX c #F5EDE9",
"iX c #F8EEE9",
"pX c #F5F2ED",
"aX c #F6F1EB",
"sX c #F5F4F4",
"dX c #F9F6F4",
"fX c #F5F5F9",
"gX c #FDFCFD",
"hX c #F8FAF9",
"jX c #EEE7EB",
"kX c None",
/* pixels */
"kXkXkXkXkXkXkXkXkXkXkXkXkXkXkXkXkXkXkXkXkXkXkXkXkXkXkXkXkXkXkXkXkXkXkXkXkXkXkXkXkXkXkXkXkXkXkXkXkXkX",
"kXkXkXkXkXkXkXkXkXkXkXkXkXkXkXkXkXkXkXkXkXkXkXkXkXkXkXkXkXkXkXkXkXkXkXkXkXkXkXkXkXkXkXkXkXkXkXkXkXkX",
"kXkXkXkXkXkXkXkXkXkXkXkXkXkXkXkXkXkXkXkXkXkXkXkXkXkXkXkXkXkXkXkXkXkXkXkXkXkXkXkXkXkXkXkXkXkXkXkXkXkX",
"kXkXkXkXkXkXkXkXkXkXkXkXkXkXkXkXkXkXkXkXkXkXkXkXkXkXkXkXkXkXkXkXkXkXkXkXkXkXkXkXkXkXkXkXkXkXkXkXkXkX",
"kXkXkXkXkXkXkXkXkXkXkXkXkXkXkXkXkXkXkXkXkXkXkXkXkXkXkXkXkXkXkXkXkXkXkXkXkXkXkXkXkXkXkXkXkXkXkXkXkXkX",
"kXkXkXkXkXkXkXkXkXkXkXkXkXkXkXkXkXkXkXkXkXkXkXkXkXkXkXkXkXkXkXkXkXkXkXkXkXkXkXkXkXkXkXkXkXkXkXkXkXkX",
"kXkXkXkXkXkXkXkXkXkXkXkXkXkXkXkXkXkXkXkXkXkXkXkXkXkXkXkXkXkXkXkXkXkXkXkXkXkXkXkXkXkXkXkXkXkXkXkXkXkX",
"kXkXkXkXkXkXkXkXkXkXkXkXkXkXkXkXkXkXkXkXkXkXkXkXkXkXkXkXX kXkXkXkXkXkXkXkXkXkXkXkXkXkXkXkXkXkXkXkXkX",
"kXkXkXkXkXkXkXkXkXkXkXkXkXkXkXkXkXkXkXkXkXkXkXkXkXkXkXkXG X kXkXO K kXkXkXkXkXkXkXkXkXkXkXkXkXkXkXkX",
"kXkXkXkXkXkXkXkXkXkXkXkXkXkXkXkXkXkXkXkXkXK kXkXkXkXkXJ J o K G J # kXkXkXkXkXkXkXkXkXkXkXkXkXkXkXkX",
"kXkXkXkXkXkXkXkXkXkXkXkXkXkXkXkXkXkXkXkXkX@ + U U T P H Y H J J G kXkXkXkXkXkXkXkXkXkXkXkXkXkXkXkXkX",
"kXkXkXkXkXkXkXkXkXkXkXkXkXkXkXkXkXkXkXkXkX0 l e e , q 6 3 Y L J   o kXkXkXkXkXkXkXkXkXkXkXkXkXkXkXkX",
"kXkXkXkXkXkXkXkXkXkXkXkXkXkXkXkXkXkXkXkX: -.{.z.V 7 b m 6 . G G T / n.kXkXkXkXkXkXkXkXkXkXkXkXkXkXkX",
"kXkXkXkXkXkXkXkXkXkXkXkXkXkXkXkXkXkXkX> j ,.z.p.A m b 9 A D 4 / W.5.C.q.kXkXkXkXkXkXkXkXkXkXkXkXkXkX",
"kXkXkXkXkXkXkXkXkXkXkXkXkXkXkXkXkXkX0 5 i j Z Z V w b 9 ) :.e W.1XN.D.u.1.kXkXkXkXkXkXkXkXkXkXkXkXkX",
"kXkXkXkXkXkXkXkXkXkXkXkXkXkXkXkXkXkXz 6 V 6 8 7 8 c b n ,.:.z ,X4X.Xr.=XI.q.8.kXkXkXkXkXkXkXkXkXkXkX",
"kXkXkXkXkXkXkXkXkXkXkXkXkXkXkXkXkX;.t r n r b b v n N ) B.t b.5X4XtXu.7XgXrXy.8.kXkXkXkXkXkXkXkXkXkX",
"kXkXkXkXkXkXkXkXkXkXkXkXkXkXkXkXI.x.& D r c c b m V A B.g.* V.5XtX;Xl.i.tXhX:Xr.q.kXkXkXkXkXkXkXkXkX",
"kXkXkXkXkXkXkXkXkXkXkXkXkXkXkX1.E.b.= r c b c A S p.B.9., >.1XyX*X4XrX6.2XfXtX*XC.kXkXkXkXkXkXkXkXkX",
"kXkXkXkXkXkXkXkXkXkXkXkXkXkX<.u.1Xc.= r v c 9 Z B.g.j < >.6X4XiX=XgX].e.eXfXsXdX,X^ kXkXkXkXkXkXkXkX",
"kXkXkXkXkXkXkXkXkXkXkXkXkX<.y.wXwXx.& r M M ..g.l > a i.1X;XaXtX2X Xe.*XpXdXdXyXeX1.kXkXkXkXkXkXkXkX",
"kXkXkXkXkXkXkXkXkXkXkXkX<.E.uXdX4XW.s q -.) =.s > ;.'.{.[.uXuXN.u.h. X:X2XqX7Xy.t.1.kXkXkXkXkXkXkXkX",
"kXkXkXkXkXkXkXkXkXkXkX<.I.sXfXpX2XXX2.s t y s ;.s.6.v.k.u.K.U.N.XX X>X`.w.w.w.A.h._ kXkXkXkXkXkXkXkX",
"kXkXkXkXkXkXkXkXkXkX1.K.uXfXfXsX2X:X'.D.Q.k.`.2XeXeXaXwX<X.XL.`.L.C.t.w.G.G.G.G.F.[ kXkXkXkXkXkXkXkX",
"kXkXkXkXkXkXkXkXkX<.C.rXsXsXsXfXyX>X:X:X4X:XeXqXeXyX-XL.P.P.P.Y.~.8X+XoX^.T.T.T.F.{ kXkXkXkXkXkXkXkX",
"kXkXkXkXkXkXkXkX<.C.eXdXsXsXfXfXsXpXeX:X:X>X:XL.q.w.P.~.~.XX9X+X#X#XoX^.!.G.G.F.s.[ kXkXkXkXkXkXkXkX",
"kXkXkXkXkXkXkX<.P.eXdXfXfXsXpXpXdXyX]. X`.r.w.~.OX|.8X+X#X#X+X#X/.A.A.A.h.h.s.k.W.[ kXkXkXkXkXkXkXkX",
"kXkXkXkXkXkX<.Y.:XuXuXuXuXyX XI.I.P.C.C.P.+X+X8X+X8X+X8X9X|.W.^.Z.].K.h.Y..X*X,X'._ kXkXkXkXkXkXkXkX",
"kXkXkXkXkXkX<.1X7X].y.y.n.v.P.Y.C./.#X9X9X+X+X+X#X#XY.C.D.`.1.j 3XgXuX<X<X=X=X,X'.[ kXkXkXkXkXkXkXkX",
"kXkXkXkXkXkX! 6.r.t.S.~./.~.oX9X9X9X+X|.|.OXY.r.C.t.>X3Xt -.S 0 sXdXeX*X.X.X}.k.d.{ kXkXkXkXkXkXkXkX",
"kXkXkXkXkXkXg o.F.G.|.#X+X#X+X|.!.^.|.E.`.K.3XpXuXuXdXjX: n D %.-X[.'.s.a.e.7.F.F.] kXkXkXkXkXkXkXkX",
"kXkXkXkXkXkXg O.J.!.!.#XY.5.f.D..Xv. .b.%XpXsXdXfXhXgXdX*.a b.>XD.k.D.).).T.G.h.d.[ kXkXkXkXkXkXkXkX",
"kXkXkXkXkXkXk O.F.d.a.6.t.:X2X&.x.9.A ; h hXdXfXyXI.].].XX^.T.Y.0X0X0X+XD.6.s.E.Q.[ kXkXkXkXkXkXkXkX",
"kXkXkXkXkXkXk o.h.'.[.W.*XgX$X- M -.l , -X7Xu.L.K.^.^.^.^.#X+X0XW.3.e.k.'.'.'..XW._ kXkXkXkXkXkXkXkX",
"kXkXkXkXkXkXk O.}.:X=X:XuXdXc.w ` 2XU.6.D.~.+X|.#X+X!.^.~.0.| +. .$ b.<X'.'.'.t.s.[ kXkXkXkXkXkXkXkX",
"kXkXkXkXkXkXk 2.OX1X,X`.N.U.U.G.Y.C.}.9X+X#X^.W.Y.Y.].I.2Xm.$ r S C n.`.s.s.h.G.j.[ kXkXkXkXkXkXkXkX",
"kXkXkXkXkXkXk O.h.k.u.Y.~.W.W.+X#X@X9XH.h.k.`.&.].yXdXdXgX].( ..2._.F.d.!.(.F.d.O.~ kXkXkXkXkXkXkXkX",
"kXkXkXkXkXkXg o.j.F.S.oX#XoXOXe.3.p.e.7X-X< =.D %.pX XN.P.~.oXoX_.@XF.a.d.@.W Q ~ kXkXkXkXkXkXkXkXkX",
"kXkXkXkXkXkXg O.T.S.S.A.k.B.l q q % m.gX%X2 B p.t.k.^.).(._.h.O.s.| R R R kXkXkXkXkXkXkXkXkXkXkXkXkX",
"kXkXkXkXkXkXk O.h.N.N.N.[.z ; d n.C M.*XD.T.Y.#X).T.W.+.} o.W f k kXkXkXkXkXkXkXkXkXkXkXkXkXkXkXkXkX",
"kXkXkXkXkXkXk o.W.<X=X,X[.;.( ^ R.).!.!.oXG.G.S.Q ( Q kXkXkXkXkXkXkXkXkXkXkXkXkXkXkXkXkXkXkXkXkXkXkX",
"kXkXkXkXkXkXg +.}..X.XN.s.W.oX_.!.s.h.j.2.k R W kXkXkXkXkXkXkXkXkXkXkXkXkXkXkXkXkXkXkXkXkXkXkXkXkXkX",
"kXkXkXkXkXkXk o.a.2.a.j.F.s.2.2.5.{ E E ! kXkXkXkXkXkXkXkXkXkXkXkXkXkXkXkXkXkXkXkXkXkXkXkXkXkXkXkXkX",
"kXkXkXkXkXkXf a.a.a.o.[ X.] kXf g kXkXkXkXkXkXkXkXkXkXkXkXkXkXkXkXkXkXkXkXkXkXkXkXkXkXkXkXkXkXkXkXkX",
"kXkXkXkXkXkXkX( _ ] ^ kXkXkXkXkXkXkXkXkXkXkXkXkXkXkXkXkXkXkXkXkXkXkXkXkXkXkXkXkXkXkXkXkXkXkXkXkXkXkX",
"kXkXkXkXkXkXkXkXkXkXkXkXkXkXkXkXkXkXkXkXkXkXkXkXkXkXkXkXkXkXkXkXkXkXkXkXkXkXkXkXkXkXkXkXkXkXkXkXkXkX",
"kXkXkXkXkXkXkXkXkXkXkXkXkXkXkXkXkXkXkXkXkXkXkXkXkXkXkXkXkXkXkXkXkXkXkXkXkXkXkXkXkXkXkXkXkXkXkXkXkXkX",
"kXkXkXkXkXkXkXkXkXkXkXkXkXkXkXkXkXkXkXkXkXkXkXkXkXkXkXkXkXkXkXkXkXkXkXkXkXkXkXkXkXkXkXkXkXkXkXkXkXkX",
"kXkXkXkXkXkXkXkXkXkXkXkXkXkXkXkXkXkXkXkXkXkXkXkXkXkXkXkXkXkXkXkXkXkXkXkXkXkXkXkXkXkXkXkXkXkXkXkXkXkX",
"kXkXkXkXkXkXkXkXkXkXkXkXkXkXkXkXkXkXkXkXkXkXkXkXkXkXkXkXkXkXkXkXkXkXkXkXkXkXkXkXkXkXkXkXkXkXkXkXkXkX"
};
