/* XPM */
static char *_2fcfd116aaa4de8e4b0b3235b72bbd8C0gYDJhlkUJHsTRB[] = {
/* columns rows colors chars-per-pixel */
"50 50 230 2 ",
"   c None",
".  c #446C14",
"X  c #78552A",
"o  c #586F33",
"O  c #4D6D28",
"+  c #637D3E",
"@  c #70753A",
"#  c #70704E",
"$  c #687D4E",
"%  c #8A0000",
"&  c #900000",
"*  c #8A001B",
"=  c #892A1D",
"-  c #940028",
";  c #8A0025",
":  c #A30E22",
">  c #982838",
",  c #8E3031",
"<  c #95363A",
"1  c #8C2C2B",
"2  c #C12F3F",
"3  c #97433C",
"4  c #8A4B34",
"5  c #8C6937",
"6  c #953F40",
"7  c #AA3640",
"8  c #B43B4B",
"9  c #B33E50",
"0  c #C53743",
"q  c #934C50",
"w  c #A74546",
"e  c #B8444A",
"r  c #A85A4A",
"t  c #B94B52",
"y  c #A65B55",
"u  c #A85954",
"i  c #B85A58",
"p  c #AE4952",
"a  c #9F6159",
"s  c #AA6443",
"d  c #AC6A58",
"f  c #B46858",
"g  c #A2755D",
"h  c #A2795F",
"j  c #99676F",
"k  c #BA6164",
"l  c #A37B63",
"z  c #BB7469",
"x  c #B37473",
"c  c #C44653",
"v  c #C84652",
"b  c #C54953",
"n  c #CA4A54",
"m  c #C95555",
"M  c #D35C59",
"N  c #CA504C",
"B  c #D36358",
"V  c #C06E59",
"C  c #D36D69",
"Z  c #C77766",
"A  c #D6746A",
"S  c #D87667",
"D  c #D57D73",
"F  c #CB726E",
"G  c #E17F72",
"H  c #6B8937",
"J  c #7F8E3D",
"K  c #77973B",
"L  c #6C8640",
"P  c #779642",
"I  c #7C8642",
"U  c #868F3F",
"Y  c #86894B",
"T  c #809F40",
"R  c #908F56",
"E  c #AC8162",
"W  c #AE8268",
"Q  c #B3846A",
"!  c #B98968",
"~  c #AC8A74",
"^  c #BB8A74",
"/  c #BA987A",
"(  c #AE986E",
")  c #C68867",
"_  c #DD806C",
"`  c #C6966E",
"'  c #C98877",
"]  c #D98B7A",
"[  c #C59671",
"{  c #C99771",
"}  c #C69871",
"|  c #CA9A74",
" . c #C89779",
".. c #D59377",
"X. c #E18A7A",
"o. c #D5A47A",
"O. c #D9A67B",
"+. c #DAA97D",
"@. c #D2A97F",
"#. c #CBA47E",
"$. c #E3AD7F",
"%. c #BC9586",
"&. c #BB9898",
"*. c #B78D82",
"=. c #BEA29C",
"-. c #CB8B82",
";. c #D68881",
":. c #CB9C89",
">. c #D49887",
",. c #C99B94",
"<. c #E69A87",
"1. c #C4AC8C",
"2. c #C7A889",
"3. c #DAAC83",
"4. c #DBAD8C",
"5. c #D2A884",
"6. c #DCB184",
"7. c #DCB48D",
"8. c #DAB78E",
"9. c #C4AC92",
"0. c #DEA295",
"q. c #D7AD99",
"w. c #CBB596",
"e. c #D3B593",
"r. c #DDB692",
"t. c #D7B995",
"y. c #DCBB95",
"u. c #D7BB9E",
"i. c #DDBC9B",
"p. c #D9B59D",
"a. c #E9A78A",
"s. c #E3B484",
"d. c #E1B58D",
"f. c #E6BA8C",
"g. c #E1B887",
"h. c #E9A794",
"j. c #E2BC94",
"k. c #E9BE91",
"l. c #E2BE9C",
"z. c #E7B69C",
"x. c #F2AC96",
"c. c #CBA9A2",
"v. c #CDB2AA",
"b. c #DCBDA3",
"n. c #D3B6AB",
"m. c #D8B8A4",
"M. c #CDB8BB",
"N. c #D6AFA7",
"B. c #E2BAA2",
"V. c #F3B8A3",
"C. c #E6BFB0",
"Z. c #DDC09C",
"A. c #DFC096",
"S. c #E6C194",
"D. c #EAC395",
"F. c #E4C29B",
"G. c #EBC69A",
"H. c #ECCB9D",
"J. c #E2C89F",
"K. c #F0CC9E",
"L. c #DEC2A4",
"P. c #DCC4AA",
"I. c #DBC6A3",
"U. c #DEC8B3",
"Y. c #E2C3A4",
"T. c #E4CBA5",
"R. c #ECCDA2",
"E. c #E3C5AB",
"W. c #E4CBAF",
"Q. c #EBCDAA",
"!. c #EAC5A1",
"~. c #EDD1A5",
"^. c #E7D2AA",
"/. c #EDD4AC",
"(. c #EBDAAE",
"). c #F1D0A3",
"_. c #F1D4AD",
"`. c #F4D9AE",
"'. c #E4CCB3",
"]. c #EBCDB4",
"[. c #E2CCBA",
"{. c #EACEBB",
"}. c #F8CAB7",
"|. c #EDD4B3",
" X c #EEDAB3",
".X c #E5D1BB",
"XX c #ECD3BB",
"oX c #E9D6B6",
"OX c #F3DCB3",
"+X c #F2D8B8",
"@X c #F3E4BD",
"#X c #F8E4BC",
"$X c #F4E5BA",
"%X c #CDBBC4",
"&X c #DCCDC8",
"*X c #E1CAC0",
"=X c #EAD5C4",
"-X c #EDDAC5",
";X c #E3D3CC",
":X c #EBD5CB",
">X c #ECDBCC",
",X c #E7D6C4",
"<X c #F2DAC4",
"1X c #F2DCCA",
"2X c #F8D7CB",
"3X c #EDDED1",
"4X c #E6DCD3",
"5X c #F4DAD3",
"6X c #F7DED5",
"7X c #F2CDC4",
"8X c #EEE1CE",
"9X c #F6E6C1",
"0X c #F6E9C2",
"qX c #F9E7C1",
"wX c #EEE3D8",
"eX c #F2E2D4",
"rX c #F2E5DB",
"tX c #F1E8DC",
"yX c #F1E5E1",
"uX c #F4EAE3",
"iX c #F5EDE9",
"pX c #F8EEE9",
"aX c #F5F2ED",
"sX c #F6F1EB",
"dX c #F5F4F4",
"fX c #F9F6F4",
"gX c #F5F5F9",
"hX c #FDFCFD",
"jX c #F8FAF9",
"kX c #EEE7EB",
/* pixels */
"                                                                                                    ",
"                                                                                                    ",
"                                                                                                    ",
"                                                                                                    ",
"                                                                                                    ",
"                                                                                                    ",
"                                                                                                    ",
"                                                        o                                           ",
"                                                        H o     + H                                 ",
"                                          L           K K O L H P L                                 ",
"                                          # @ Y Y R I J T J K K L                                   ",
"                                          q z r r < w 7 4 T P K . O                                 ",
"                                        > ;.}.x.C 8 n M 7 X H H R ( m.                              ",
"                                      , k <.x.a.S M n 0 S F 5 ( Y.3.F.w.                            ",
"                                    q 6 p k A A C e n 0 _ >.r Q.6Xl.F.i.2.                          ",
"                                    x 7 C 7 9 8 9 v n m <.>.x <X5XXXy.-XU.w.9.                      ",
"                                  :.y t m t n n b m B _ V.y n.6X5XrXb.>XhXrXu.9.                    ",
"                                U.c.* F t v v n M C S V.h.= C.6XyX:Xp.l.yXhX>Xe.w.                  ",
"                              2.W.n.- t v n v S D a.V.0.< ,.2XuX=X6XrX7.3XgXuX,XZ.                  ",
"                            1.i.2Xv.- t b v 0 A V.h.k 1 ,.7X5XpX:XhX'.y.eXgXdXfX<X/                 ",
"                          1.i.eXeXc.* t N N X.h.z , s p.2X:XsXyX3X.X8.,XaXfXdXuXrX2.                ",
"                        1.U.iXdX5XQ.d w ;._ -.d , :.].}.{.iXiXB.i.j..X1XwX3X8Xu.r.2.                ",
"                      9.U.aXgXdX3XoX3.d y u d :.d.7.b.l.i.L.Y.B.XX.X,X'.e.e.8.J.j.`                 ",
"                    2.L.aXgXdXdX3X>X].F.!.l.'.3XrXrXsXeX1XXXP.'.P.u.y.8.H.H.H.H.H.{                 ",
"                  1.Z.wXfXdXdXgXuX,X>X>X5X>XrXwXrXuX;XP.I.I.I.T.^.9X@XOX/.R.H.~.G.}                 ",
"                1.L.rXfXdXdXdXdXdXaXtX>X>X,X3XP.w.e.I.^.^.oX0X@X@X#X X/.~.G.H.G.d.|                 ",
"              1.I.tXfXgXgXdXaXdXdXuX[..XW.t.e.^.+X X9X@X@X@X@X@X(.D.D.S.S.d.d.l.Q.`                 ",
"            1.T.>XiXuXiXiXuX.XU.U.I.Z.Z.I.@X@X@X@X9X@X9X0X`.Q./.A.U.L.j.T.-X=X-X].`                 ",
"            1.<X8X{.u.u.m.m.I.T.I.(.@X0X9X@X9X@X$X$XT.i.J.'.,.f 4XhXiX1X<X<X-X-X_.[                 ",
"            ~ r.t.y.S.^.(.(.+X0X0X@X@X X XOXI.y.Z.y.,X4Xy ] D q dXfXrX=XXXXX|.l.d.{                 ",
"            h O.G.H.OX@X$X$X$X X~./.OXW.'.b.4XaXiXuXjXkX> m F &.:X.X].d.d.7.7.H.G.[                 ",
"            l +.H.~.(. XR.6.g.j.=Xb...m.&XdXfXfXjXjXhXfX=.s n.,Xi.F.l._.`.R.H.j.f.{                 ",
"            l +.H.d.d.s.i.:X>X%.9.0.S : j fXdXfXuXU.[.[..X/.R.T.9XqXqX$Xj.7.d.E.!.`                 ",
"            l O.j.].].Q.,XhX%X; m ;.z 6 ;X3Xi.P.L./././.|.@X@X#X/.4.r.l.].XXXX+XQ.[                 ",
"            l +.|.>X-X>XuXfXv.e ' 3XE.7.Y.T.$XOXOX$X/./.(.4... ...& n.<X].].].r.d.{                 ",
"            l +.+X2X<X'.B.E.Y.J.G.Z.|.0X@X@X/.Q.T.T.[.U.wXM.% i _ Z n.'.d.7.j.H.k.{                 ",
"            l +.j.l.i.!./.Q.T.#X@X#X0XJ.Z.z.'.*.*XiXjXfXhX[.) X.4.|.G.S.~.).G.f.O.^                 ",
"            l +.D.G.F.OX$XOX@Xr.4.a.r.8X;X1 -.Z &.aX.XB.I.~.OX_.`.$XG.s.f.#.Q ! ^                   ",
"            g +.K.D.k.F.i.V.z w w & M.hX&X3 V a.j.j./._.~.`.j.3.s. .E E E                           ",
"            l O.j.B.l.Y.{.x : i m.Z N.,XF.K.T.#X/.Q.~.@.| o.Q g l                                   ",
"            l O.Q.1X<X<X{.:.) ^ W._.~.R.OXH.H.D.! ) !                                               ",
"            l +.}.XXXXF.j.R.OXOX~.d.j.k.5.E E Q                                                     ",
"            l o.6.3.3.S.D.d.3.3.6.} W W ~                                                           ",
"            g s.s.s.O.| o.[   g g                                                                   ",
"              ) ` [ /                                                                               ",
"                                                                                                    ",
"                                                                                                    ",
"                                                                                                    ",
"                                                                                                    ",
"                                                                                                    "
};
