/* XPM */
static char *result[] = {
/* columns rows colors chars-per-pixel */
"50 50 99 2 ",
"   c #000000",
".  c #0C0A06",
"X  c #06070C",
"o  c #0C0D0E",
"O  c #140A00",
"+  c #1C1300",
"@  c #16130D",
"#  c #060A17",
"$  c #161210",
"%  c #191611",
"&  c #251D06",
"*  c #221D14",
"=  c #00002A",
"-  c #2B2B2E",
";  c #362F26",
":  c #2D2D31",
">  c #363634",
",  c #393636",
"<  c #47423F",
"1  c #001D40",
"2  c #2A3548",
"3  c #4A474A",
"4  c #4E4949",
"5  c #544E49",
"6  c #FDBE00",
"7  c #F6C500",
"8  c #FCC501",
"9  c #F7CA02",
"0  c #FECC02",
"q  c #F7C408",
"w  c #FCC60A",
"e  c #FECD0B",
"r  c #FFD301",
"t  c #FFD900",
"y  c #FFD30C",
"u  c #FFDB0E",
"i  c #FCC516",
"p  c #FDCD13",
"a  c #FFCE18",
"s  c #FFD513",
"d  c #FFD913",
"f  c #FCD21E",
"g  c #FFDB1C",
"h  c #FFE013",
"j  c #FFE418",
"k  c #F9C929",
"l  c #FCD523",
"z  c #FBD926",
"x  c #FCDB2B",
"c  c #FBCA32",
"v  c #FBDD33",
"b  c #FFE620",
"n  c #FFE329",
"m  c #FCE135",
"M  c #FAE23C",
"N  c #FFEE39",
"B  c #FFF93F",
"V  c #FBE644",
"C  c #FCEB43",
"Z  c #FCE74A",
"A  c #FBEA4C",
"S  c #F9F447",
"D  c #FFF149",
"F  c #FBEC53",
"G  c #FAEF5A",
"H  c #FBF554",
"J  c #FFFF54",
"K  c #FBF25C",
"L  c #FFFD5C",
"P  c #FBF464",
"I  c #F7FA61",
"U  c #FEFC65",
"Y  c #FBF769",
"T  c #FDFC6C",
"R  c #FDFC73",
"E  c #FEF279",
"W  c #F7FF7B",
"Q  c #FCFD7A",
"!  c #F7FF83",
"~  c #FAFF83",
"^  c #FDFE8A",
"/  c #FEFE95",
"(  c #FEFF9F",
")  c #FEFFA4",
"_  c #FFFFAB",
"`  c #FFFFB4",
"'  c #FDF3BB",
"]  c #FFFFBA",
"[  c #FDFFC6",
"{  c #F7FFCE",
"}  c #FFFFCA",
"|  c #FEFFD4",
" . c #FAFFDE",
".. c #FCFEE2",
"X. c #F7FEEE",
"o. c #FBFEEC",
"O. c #FCFFF3",
"+. c #FBFFFB",
"@. c None",
/* pixels */
"@.@.@.@.@.@.@.@.@.@.@.@.@.@.@.@.@.@.@.@.@.@.@.Q [ O.@.@.@.@.@.@.@.@.@.@.@.@.@.@.@.@.@.@.@.@.@.@.@.@.",
"@.@.@.@.@.@.@.@.@.@.@.@.@.@.@.@.@.@.@.@.@.@.C R / ..X.@.@.@.@.@.@.@.@.@.@.@.@.@.@.@.@.@.@.@.@.@.@.@.",
"@.@.@.@.@.@.@.@.@.@.@.@.@.@.@.@.@.@.@.@.@.S J U Q ! | O.@.@.@.@.@.@.@.@.@.@.@.@.@.@.@.@.@.@.@.@.@.@.",
"@.@.@.@.@.@.@.@.@.@.@.@.@.@.@.@.@.@.@.@.H L P R Q ! ! | O.@.@.@.@.@.@.@.@.@.@.@.@.@.@.@.@.@.@.@.@.@.",
"@.@.@.@.@.@.@.@.@.@.@.@.@.@.@.@.@.@.@.@.L U T R Q ~ ~ ! | X.@.@.@.@.@.@.@.@.@.@.@.@.@.@.@.@.@.@.@.@.",
"@.@.@.@.@.@.@.@.@.@.@.@.@.@.@.@.@.@.H H H U R R Q ! ! ! ^ [  . .o.@.@.@.@.@.@.@.@.@.@.@.@.@.@.@.@.@.",
"@.@.@.@.@.@.@.@.@.@.@.@.@.@.@.H H L U U T R R R R W W ! ! ! ^ ) ] } | | ..o.@.@.@.@.@.@.@.@.@.@.@.@.",
"@.@.@.@.@.@.@.@.@.@.@.@.H L L U U U T R R R R R Q Q ~ ~ ! ! ! W W W ! ^ _ o...@.@.@.@.@.@.@.@.@.@.@.",
"@.@.@.@.@.@.@.@.@.@.@.u N H U T R R R R R R W Y R W W ! ! ! ! ! ~ Q ~ Q T ^ ) @.@.@.@.@.@.@.@.@.@.@.",
"@.@.@.@.@.@.@.@.@.@.@.8 0 z G P T T R W R R R R R R W W Q Q Q Q Q Q Q R Q ^ @.@.@.@.@.@.@.@.@.@.@.@.",
"@.@.@.@.@.@.@.@.@.@.@.@.w 0 l Z F G G P Y Y Y R R R W E R R R Q Q Q R Q ^ @.@.@.@.@.@.@.@.@.@.@.@.@.",
"@.@.@.@.@.@.@.@.@.@.@.@.@.8 r f V F F G P I P Y Y R Y R R E Q Q Q Q Q ^ @.@.@.@.@.@.@.@.@.@.@.@.@.@.",
"@.@.@.@.@.@.@.@.@.@.@.@.@.@.w r p M Z A G G Y Y R Y R R W Q E R R Q ^ @.@.@.@.@.@.@.@.@.@.@.@.@.@.@.",
"@.@.@.@.@.@.S ` O.@.@.@.@.@.@.w 9 p V A G G Y Y P P P E Q Q Q Q R ^ @.@.@.@.@.@.@.I | +.@.@.@.@.@.@.",
"@.@.@.@.@.@.U U ] o.@.@.@.@.@.@.8 p V F G P P P P P P P R Q W Q Q ~ / @.@.@.@.@.I U R | @.@.@.@.@.@.",
"@.@.@.@.T T U Q W [ O.@.@.@.@.@.w e V F G P P P G G K G G T Q Q R ~ / @.@.@.@.T U Y Q W | +.@.@.@.@.",
"@.U T U T U T Q ! ! ) } | ..@.@.8 a Z G G K G G F Z A K G K T Q R Q ^ @.R U T U T T Q ! ! ] [ | o.@.",
"e S L T T R T R ! ! W R W ^ | ' 6 a Z K K G F V x s z M V A G R R Q E j D U U T T R Q ! ! Q W Q ) } ",
"@.8 s v F P T R W Q Q Q R ~ ^ @.8 0 v A A v d t 8 7 8 r r g x v A R ^ c 0 f M G Y T Q Q Q Q Q R Q @.",
"@.@.0 e z V P Y R Q R R ~ ) @.@.i 0 8 y t 0 8 9 @.@.@.@.7 7 8 r t U Q @.8 e p x A P Y R R R R ^ @.@.",
"@.@.@.y x A K A G E R R / @.@.@.@.0 8 0 k @.@.@.@.@.@.@.@.@.@.@.8 f @.@.@.8 s v F G A K Q R ^ @.@.@.",
"@.@.@.y M Z M x v A R Q / @.@.@.@.@.@.@.@.@.@.5 4 3 3 5 @.@.@.@.@.@.@.@.@.8 g V A m x m G R ~ @.@.@.",
"@.@.@.d v n u 9 y h N R / @.@.@.@.1 = # & +               . * ; < @.@.@.@.8 g n j e 0 d g V ~ @.@.@.",
"@.@.@.r 9 7 @.@.@.q 8 x Q @.@.> X O +                             o - @.@.8 0 9 7 @.@.@.i 7 H @.@.@.",
"@.@.@.@.@.@.@.@.@.@.@.@.@.2 %                                   X     $ 2 @.@.@.@.@.@.@.@.@.@.@.@.@.",
"@.@.@.@.@.@.@.@.@.@.@.@.@.@   X                                         @ @.@.@.@.@.@.@.@.@.@.@.@.@.",
"@.@.@.@.@.@.@.@.@.@.@.@.,                                                 , @.@.@.@.@.@.@.@.@.@.@.@.",
"@.@.@.@.@.@.@.@.@.@.@.@.-                                                 - @.@.@.@.@.@.@.@.@.@.@.@.",
"@.@.@.@.@.@.@.@.@.@.@.@.-                                                 : @.@.@.@.@.@.@.@.@.@.@.@.",
"@.@.@.@.@.@.@.@.@.@.@.@.:                                                 : @.@.@.@.@.@.@.@.@.@.@.@.",
"@.@.@.@.@.@.@.@.@.@.@.@.-                                                 - @.@.@.@.@.@.@.@.@.@.@.@.",
"@.@.@.@.@.@.@.@.@.@.@.@.-                                                 - @.@.@.@.@.@.@.@.@.@.@.@.",
"@.@.@.@.@.@.@.@.@.@.@.@.-                                                 - @.@.@.@.@.@.@.@.@.@.@.@.",
"@.@.@.@.@.@.@.@.@.@.@.@.-                                                 - @.@.@.@.@.@.@.@.@.@.@.@.",
"@.@.@.@.@.@.@.@.@.@.@.@.:                                                 - @.@.@.@.@.@.@.@.@.@.@.@.",
"@.@.@.@.@.@.@.@.@.@.@.@.-                                                 - @.@.@.@.@.@.@.@.@.@.@.@.",
"@.@.@.@.@.@.@.@.@.@.@.@.-                                                 : @.@.@.@.@.@.@.@.@.@.@.@.",
"@.@.@.@.@.@.@.@.@.@.@.@.-                                                 : @.@.@.@.@.@.@.@.@.@.@.@.",
"@.@.@.@.@.@.@.@.@.@.@.@.:                                                 : @.@.@.@.@.@.@.@.@.@.@.@.",
"@.@.@.@.@.@.@.@.@.@.@.@.-                                                 : @.@.@.@.@.@.@.@.@.@.@.@.",
"@.@.@.@.@.@.@.@.@.@.@.@.-                                                 - @.@.@.@.@.@.@.@.@.@.@.@.",
"@.@.@.@.@.@.@.@.@.@.@.@.-                                                 - @.@.@.@.@.@.@.@.@.@.@.@.",
"@.@.@.@.@.@.@.@.@.@.@.@.:                                                 - @.@.@.@.@.@.@.@.@.@.@.@.",
"@.@.@.@.@.@.@.@.@.@.@.@.-                                                 - @.@.@.@.@.@.@.@.@.@.@.@.",
"@.@.@.@.@.@.@.@.@.@.@.@.-                                                 - @.@.@.@.@.@.@.@.@.@.@.@.",
"@.@.@.@.@.@.@.@.@.@.@.@.-                                                 - @.@.@.@.@.@.@.@.@.@.@.@.",
"@.@.@.@.@.@.@.@.@.@.@.@.:           X                                 X   - @.@.@.@.@.@.@.@.@.@.@.@.",
"@.@.@.@.@.@.@.@.@.@.@.@.-                                                 - @.@.@.@.@.@.@.@.@.@.@.@.",
"@.@.@.@.@.@.@.@.@.@.@.@.@.: : : : : : : : : : : : : : : : : : : : : : : : @.@.@.@.@.@.@.@.@.@.@.@.@.",
"@.@.@.@.@.@.@.@.@.@.@.@.@.@.@.@.@.@.@.@.@.@.@.@.@.@.@.@.@.@.@.@.@.@.@.@.@.@.@.@.@.@.@.@.@.@.@.@.@.@."
};
