/* XPM */
static char *result[] = {
/* columns rows colors chars-per-pixel */
"50 50 238 2 ",
"   c black",
".  c #510000",
"X  c #4D3418",
"o  c #563819",
"O  c #492E14",
"+  c #70310E",
"@  c #563C28",
"#  c #4B3A24",
"$  c #683D2A",
"%  c #6E003B",
"&  c #5C4635",
"*  c #654528",
"=  c #664A35",
"-  c #6B5235",
";  c #6F573B",
":  c #725A39",
">  c #7A7A20",
",  c #2D2F4F",
"<  c #001271",
"1  c #0D266F",
"2  c #27317A",
"3  c #2E2D72",
"4  c #1B255F",
"5  c #653860",
"6  c #6D5B42",
"7  c #705D48",
"8  c #746951",
"9  c #4A7271",
"0  c #786865",
"q  c #595F51",
"w  c #B21611",
"e  c #9A281A",
"r  c #9B351A",
"t  c #95260A",
"y  c #A8290A",
"u  c #A52F14",
"i  c #A7361B",
"p  c #B63619",
"a  c #B93704",
"s  c #9B2925",
"d  c #8B302B",
"f  c #A92827",
"g  c #AA3C24",
"h  c #A93A24",
"j  c #B7372C",
"k  c #B0352F",
"l  c #CF3B0A",
"z  c #CC3633",
"x  c #E13600",
"c  c #A8511A",
"v  c #914F33",
"b  c #A94226",
"n  c #B54325",
"m  c #B74528",
"M  c #A75332",
"N  c #B65536",
"B  c #B34A31",
"V  c #8F6E2F",
"C  c #AB6334",
"Z  c #9B4F1C",
"A  c #C94307",
"S  c #CA4618",
"D  c #D64816",
"F  c #FF5408",
"G  c #EA5114",
"H  c #C74928",
"J  c #D54B23",
"K  c #DC562E",
"L  c #DA5933",
"P  c #CC4C34",
"I  c #E65628",
"U  c #F55822",
"Y  c #E85D37",
"T  c #F15336",
"R  c #CC702D",
"E  c #EB643B",
"W  c #F86638",
"Q  c #864B5C",
"!  c #886B48",
"~  c #8C7151",
"^  c #8B7052",
"/  c #AF7149",
"(  c #887A69",
")  c #847079",
"_  c #BB5246",
"`  c #EC6A48",
"'  c #F86944",
"]  c #FB7548",
"[  c #FA7955",
"{  c #F16B54",
"}  c #F47663",
"|  c #D7664F",
" . c #9C8B27",
".. c #969131",
"X. c #A4932C",
"o. c #AA9528",
"O. c #B79928",
"+. c #A59A38",
"@. c #B79737",
"#. c #B38A35",
"$. c #BAA02D",
"%. c #B9A332",
"&. c #C59D22",
"*. c #C5973A",
"=. c #C3A229",
"-. c #D3AD2C",
";. c #CAAA33",
":. c #D3AB36",
">. c #D6B438",
",. c #D6B330",
"<. c #E5BC37",
"1. c #EABD2E",
"2. c #DFC23A",
"3. c #E9C43C",
"4. c #F4D039",
"5. c #AC865B",
"6. c #BC8452",
"7. c #B7A845",
"8. c #93856C",
"9. c #AB8969",
"0. c #BA9968",
"q. c #BC9670",
"w. c #BAA273",
"e. c #C78E5C",
"r. c #FD8558",
"t. c #F28E55",
"y. c #CAB248",
"u. c #D2B645",
"i. c #D6BC52",
"p. c #F0B052",
"a. c #D79D66",
"s. c #C99C6B",
"d. c #E29262",
"f. c #C8A36C",
"g. c #C3A47A",
"h. c #CBA776",
"j. c #D3AC7C",
"k. c #D9AB77",
"l. c #DCB27D",
"z. c #D9B176",
"x. c #FEA264",
"c. c #FFA76A",
"v. c #F9AA78",
"b. c #EBAF7A",
"n. c #E9C645",
"m. c #F1CD47",
"M. c #FCD34B",
"N. c #F9D849",
"B. c #FCDB53",
"V. c #FCDC58",
"C. c #EACF4E",
"Z. c #FCE647",
"A. c #FEFB4C",
"S. c #FEE45C",
"D. c #FEE857",
"F. c #F3F14B",
"G. c #000089",
"H. c #001D9A",
"J. c #002A86",
"K. c #023394",
"L. c #0E2595",
"P. c #27348A",
"I. c #23379A",
"U. c #29399A",
"Y. c #313691",
"T. c #0034BA",
"R. c #2B3DA5",
"E. c #263DA9",
"W. c #2A3FB0",
"Q. c #0040BB",
"!. c #2D40AB",
"~. c #3442A8",
"^. c #2E42B7",
"/. c #3649BC",
"(. c #3547B6",
"). c #3A4CC5",
"_. c #344ACB",
"`. c #364AC6",
"'. c #394FD3",
"]. c #364CD2",
"[. c #3D51D4",
"{. c #3C52DA",
"}. c #3750D4",
"|. c #3D55C7",
" X c #3E55E2",
".X c #1951C8",
"XX c #4358DA",
"oX c #4156CE",
"OX c #415AE5",
"+X c #74939D",
"@X c #92928C",
"#X c #AB9C8A",
"$X c #8DA6B3",
"%X c #BBB5B2",
"&X c #9D9F97",
"*X c #C6AA85",
"=X c #DDB482",
"-X c #D5B789",
";X c #D1BA9B",
":X c #E5BD8A",
">X c #E7BB87",
",X c #FAB786",
"<X c #E9AD81",
"1X c #CBBCA4",
"2X c #DDC19F",
"3X c #ECC28C",
"4X c #EEC592",
"5X c #EAC99A",
"6X c #F5CA95",
"7X c #F2CB9B",
"8X c #FACD9B",
"9X c #F9C793",
"0X c #FCD29D",
"qX c #F6D399",
"wX c #F8C48B",
"eX c #DDCBAD",
"rX c #E6CDA6",
"tX c #FBD5A4",
"yX c #FDDBAB",
"uX c #FDD8A6",
"iX c #F3D9B1",
"pX c #FCE1AD",
"aX c #FEE3B4",
"sX c #FEE6BA",
"dX c #FEEBBE",
"fX c #F9E8B7",
"gX c #FEF3BC",
"hX c #B5C6CD",
"jX c #C5D4D9",
"kX c #D2D0D1",
"lX c #FEEBC4",
"zX c #FBE9C5",
"xX c #FFF3CC",
"cX c #FFF4C4",
"vX c #DBDCE0",
"bX c #DBE4E9",
"nX c white",
"mX c None",
/* pixels */
"mXmXmXmXmXmXmXmXmXmXmXmXmXmXmXmXmXmXmXmXmXmXmXmXmXmXmXmXmXmXmXmXmXmXmXmXmXmXmXmXmXmXmXmXmXmXmXmXmXmX",
"mXmXmXmXmXmXmXmXmXmXmXmXmXmXmXmXmXmXmXmXmXmXmXmXmXbXjX#XmXmXmXmXmXmXmXmXmXmXmXmXmXmXmXmXmXmXmXmXmXmX",
"mXmXmXmXmXmXmXmXmXmXmXmXmXmXmXmXmXmXmXmXmXmXmXhXjXhX8.mXmXmXmXmXmXmXmXmXmXmXmXmXmXmXmXmXmXmXmXmXmXmX",
"mXmXmXmXmXmXmXmXmXmXmXmXmXmXmXmXmXmXmXmXhXhXhXhX&XV ! mXmXmXmXmXmXmXmXmXmXmXmXmXmXmXmXmXmXmXmXmXmXmX",
"mXmXmXmXmXmXmXmXmXmXmXmXmXmXmXmXmXmXmXhX$X$X$X( : ^ mXmXmXmXmXmXmXmXmXmXmXmXmXmXmXmXmXmXmXmXmXmXmXmX",
"mXmXmXmXmXmXmXmXmXmXmXmXmXmXmXmXmXmX+X$X+X&X^ ; ~ mXmXmXmXmXmXmXmXmXmXmXmXmXmXmXmXmXmXmXmXmXmXmXmXmX",
"mXmXmXmXmXmXmXmXmXmXmXmXmXmXmXmXmXmX9 $X@X7 6 ! ~ mXmXmXmXmXmXmXmXmXmXmXmXmXmXmXmXmXmXmXmXmXmXmXmXmX",
"mXmXmXmXmXmXmXmXmXmXmXmXmXj s j z b 9 8.V 7 7 ~ mXmXmXmXmXmXmXmXmXmXmXmXmXmXmXmXmXmXmXmXmXmXmXmXmXmX",
"mXmXmXmXmXmXmXmXmXmXmXz z j f d f Z q 8 8.! ~ mXmXmXmXmXmXmXmXmXmXmXmXmXmXmXmXmXmXmXmXmXmXmXmXmXmXmX",
"mXmXmXmXmXmXmXmXmXmXf z z f mXmXs P m ! ^ 8.~ mXmXmXmXmXmXmXmXmXmXmXmXmXmXmXmXmXmXmXmXmXmXmXmXmXmXmX",
"mXmXmXmXmXmXmXmXmXmXf z e mXmX= + z P T mXmXmXmXmXmXmXmXmXmXmXmXmXmXmXmXmXmXmXmXmXmXmXmXmXmXmXmXmXmX",
"mXmXmXmXmXmXmXmXmXmXe mXmX; - X $ mXmXmXmXmXmXmXmXmXmXmXmXmXmXmXmXmXmXmXmXmXmXmXmXmXmXmXmXmXmXmXmXmX",
"mXmXmXmXmXmXmXmXmXmXmXmX: * o = mXmXmXmXmXmXmXmXmXmXmXmXmXmXmXmXmXmXmXmXmXmXmXmXmXmXmXmXmXmXmXmXmXmX",
"mXmXmXmXmXmXmXmXmXmXmX; * o = mXmXmXmXmXmXmXmXmXmXmXmXmXmXmXmXmXmXmXmXmXmXmXmXmXmXmXmXmXmXmXmXmXmXmX",
"mXmXmXmXmXmXmXmXmXmX; o # mXmXmXmXmXmXmXmXmXmXmXmXmXmXmXmXmXmXmXmXmXmXmXmXmXmXmXmXmXmXmXmXmXmXmXmXmX",
"mXmXmXmXmXmXmXmX; - X @ v mXmXmXmXmXmXmXmXmXmXmXmXmXmXmXmXmXmXmXmXmXmXmXmXmXmXmXmXmXmXmXmXmXmXmXmXmX",
"mXmXmXmXmXmXmX6 - O * r l T J J mXmXmXmXI.I.E.W.W.^.^._.].mXmXmXmXmXmXmXmXmXmXmXmXmXmXmXmXmXmXmXmXmX",
"mXmXmXmXmXmX; * X $ h J ' ' W W G mXJ.I.I.I.I.E.W.^.`.].{.{.].].mXmXmXmXmXmXmXmXmXmX^.^.R.mXmXmXmXmX",
"mXmXmXmXmX: * X $ r J T { } } E T 5 K.Y.I.I.Y.R.R.~./.)._._.]. X{.].mXmXmXmXmXmX^.`._.{.`.mXmXmXmXmX",
"mXmXmXmX; o @ mXt n P I ' { } | < J.K.K.L.U.R.~.R.R.W.W.^.`._.].{.OX{.mXmXmXmX/./.R.].'.mXmXmXmXmXmX",
"mXmXmX- o & mXmXr n H L Y { { _ d d d % 5 1 < G.L.R.~.~.!.(.`.[.{.{.XXOXmXmX/.oXU.R.'.mXmXmXmXmXmXmX",
"mX6 - o & mXmXmXh B m H I L P H L I T a.-Xg.s.( 0 3 G.H.W.(./.[.{.oX{.XXOXmX~./.2 /.mXmXmXmXmXmXmXmX",
"mX- X mXmXmXmXmXmXg g n H n H L I ` >X5X5X5Xg.9.:X:Xg.( 3 G.T.oXXX'.{.{.XXoXP.3 U.mXmXmXmXmXmXmXmXmX",
"mXO mXmXmXmXmXmXmXmXn g g m L K ` :XrX6X8Xg.kXvXq.zXsXaXrX*X) H.Q.|.oXXXXX|.P.P.mXmX).oXoX'.).(.R.mX",
"mXmXmXmXmXmXmXmXmXmXmXh m P K G <X7X7XtX5X0 nXvX*XzXzXlXzX*Xh.-X) L.Q.oXXX/.4 U.W.).).).{.XX'.]._.mX",
"mXmXmXmXmXmXmXmXmXmXmXn P J I d.5X6X7XuX*X  &X& rXlXzXxX#XvX%XiXdX-XQ P..XoX4 4 2 P.Y.).oX{.[.{.!.mX",
"mXmXmXmXmXmXmXmXmXmXmXB H | z.-X3X4XqXuX0     ( lXzXxXrX@XnX%XeXxXcXv.l Q (.3 4 Y.~./.oXXX X X^.mXmX",
"mXmXmXmXmXmXmXmXmXmXb l e.=Xl.b.>X7X0X5X& +   rXlXzXxX#X, %X7 fXxXxX9XU ] 7 < Y.R.(.).'._.`.mXmXmXmX",
"mXmXmXmXmXmXmXmXmXmXu _ j.k.t.t.x.v.0XtX= . #XsXzXzXzX0     8.xXlXcX8XF r.mXmX3 2 P.P.P.mXmXmXmXmXmX",
"mXmXmXmXmXmXmXmXmXmXp q.j.k.t.t.t.c.8XyX2X;XaXyXaXfXzX& o   eXxXlXgX8XF r.mXmXmXmXmXmXmXmXmXmXmXmXmX",
"mXmXmXmXmXmXmXmXmXmXp q.h.=Xl.b.b.,X0XtXaXaXaXsXsXzXiX= . ( xXcXdXgX,XF r.r.mXmXmXmXmXmXmXmXmXmXmXmX",
"mXmXmXmXmXmXmXmXmXmXi 9.*Xh.=X=X:X4X8XtXuXuXaXsXzXzXxX1X#XzXxXxXdXdX,XF r.mXmXmXmXmXmXmXmXmXmXmXmXmX",
"mXmXmXmXmXmXmXmXmXmXi / w.g.j.=X=X:X4X0XuXyXaXaXsXzXzXxXxXcXuX8XuXgXaX] [ ] mXmXmXmXmXmXmXmXmXmXmXmX",
"mXmXmXmXmXmXmXmXmXmXg r 9.w.h.h.l.=X:X4X8XuXyXaXaXsXsXzXlXaXx.x.x.,XgXv.] ] U mXmXmXmXmXmXmXmXmXmXmX",
"mXmXmXmXmXmXmXmXmXmXB h r 9.q.f.h.z.l.=X4X7XtXuXyXaXaXsXdXdXwXc.x.c.gX9XW ` W W mXmXmXmXmXmXmXmXmXmX",
"mXmXmXmXmXmXmXmXmXmXmXN e r / 0.w.f.h.z.=X:X4X0XtXtXyXaXaXsXsXpX0XuXgX9XW ` ] ] E mXmXmXmXmXmXmXmXmX",
"mXmXmXmXmXmXmXmXmXmX;.*.h r t M 5.0.s.f.h.z.l.>X3X6XqX0XpXuX0XpXpXpXfXc.E ` r.r.] mXmXmXmXmXmXmXmXmX",
"mXmXmXmXmXmXmXmXmXO.>.u.7.k h e t M / 0.f.f.h.z.z.>Xb.wXwX6XqXqXqXpX6X' L E [ r.] mXmXmXmXmXmXmXmXmX",
"mXmXmXmXmXmXmXmXO.>.>.u.y.7.C n b u t b C 6.s.s.f.k.z.z.l.3X3XwXqX>X] Y A U W W W mXmXmXmXmXmXmXmXmX",
"mXmXmXmXmXmXmXo.;.u.u.u.y.y.%.6.N B m h y u b C / e.e.e.a.a.a.a.t.G K c S D I U J mXmXmXmXmXmXmXmXmX",
"mXmXmXmXmXmXmX@.;.>.u.n.C.i.i.y.7...C M N B B p a y a a A A A x D M t w p J S S mXmXmXmXmXmXmXmXmXmX",
"mXmXmXmXmXmX .&.>.n.m.V.V.S.V.C.i.7. . .V mXP N N P B H S J K R @.%.=.O.c w mXmXmXmXmXmXmXmXmXmXmXmX",
"mXmXmXmXmXmX .&.>.n.M.V.S.S.S.S.D.C.%.X.mXmXmX..V V V *.:.<.3.N.N.4.Z.Z.F.mXmXmXmXmXmXmXmXmXmXmXmXmX",
"mXmXmXmXmXmXX.O.:.3.M.B.S.S.S.S.Z.Z.2.mXmXmXmXmX..> o.,.n.M.M.M.N.Z.Z.Z.A.A.mXmXmXmXmXmXmXmXmXmXmXmX",
"mXmXmXmXmXmX+.O.;.<.m.B.V.V.B.N.4.4.mXmXmXmXmXmX+...X.$.>.n.N.M.B.D.B.Z.D.A.mXmXmXmXmXmXmXmXmXmXmXmX",
"mXmXmXmXmXmX7. .$.>.n.m.C.C.3.4.3.mXmXmXmXmXmXmXmX+.X.X.;.>.m.B.S.S.S.D.D.A.mXmXmXmXmXmXmXmXmXmXmXmX",
"mXmXmXmXmXmXmX%.O.O.-.,.<.1.3.-.mXmXmXmXmXmXmXmXmXmX+.+.o.$.>.m.B.S.S.D.F.A.F.mXmXmXmXmXmXmXmXmXmXmX",
"mXmXmXmXmXmXmXmXO.O.&.&.&.&.mXmXmXmXmXmXmXmXmXmXmXmXmXmX+.$.$.,.<.m.N.D.4.Z.mXmXmXmXmXmXmXmXmXmXmXmX",
"mXmXmXmXmXmXmXmXmXmXmXmXmXmXmXmXmXmXmXmXmXmXmXmXmXmXmXmXmXmX@.$.;.,.3.4.3.mXmXmXmXmXmXmXmXmXmXmXmXmX",
"mXmXmXmXmXmXmXmXmXmXmXmXmXmXmXmXmXmXmXmXmXmXmXmXmXmXmXmXmXmXmXmXmX;.:.mXmXmXmXmXmXmXmXmXmXmXmXmXmXmX"
};
