/* XPM */
static char *result[] = {
/* columns rows colors chars-per-pixel */
"50 50 243 2 ",
"   c #000302",
".  c #000903",
"X  c #040A0C",
"o  c #180404",
"O  c #001105",
"+  c #040C13",
"@  c #1A0F15",
"#  c #1A1016",
"$  c #0E1412",
"%  c #280401",
"&  c #380607",
"*  c #290915",
"=  c #27141A",
"-  c #390D16",
";  c #0E0022",
":  c #331926",
">  c #33232F",
",  c #172730",
"<  c #4A0804",
"1  c #4C0015",
"2  c #470915",
"3  c #520016",
"4  c #580B19",
"5  c #5B1217",
"6  c #4E0F0B",
"7  c #660205",
"8  c #770000",
"9  c #770518",
"0  c #681817",
"q  c #76181C",
"w  c #670219",
"e  c #662115",
"r  c #66231A",
"t  c #6D221A",
"y  c #752A0F",
"u  c #541023",
"i  c #691A22",
"p  c #7C063C",
"a  c #700A29",
"s  c #772528",
"d  c #4B2519",
"f  c #7C4516",
"g  c #5C3352",
"h  c #7D5069",
"j  c #940000",
"k  c #8E0D1B",
"l  c #A60206",
"z  c #B70018",
"x  c #B40610",
"c  c #8C3A05",
"v  c #923B05",
"b  c #9A3816",
"n  c #8C2E16",
"m  c #880B26",
"M  c #9B0428",
"N  c #871828",
"B  c #8D0636",
"V  c #B60127",
"C  c #B61929",
"Z  c #B90337",
"A  c #A4062D",
"S  c #922634",
"D  c #AB2637",
"F  c #BE3A30",
"G  c #B43128",
"H  c #AB3B10",
"J  c #D1050F",
"K  c #E93D00",
"L  c #C40D3A",
"P  c #C91B3C",
"I  c #D51B39",
"U  c #D51827",
"Y  c #EA1930",
"T  c #C83A2C",
"R  c #DD2739",
"E  c #C73B31",
"W  c #EA2C3C",
"Q  c #F22A3B",
"!  c #DA2513",
"~  c #995114",
"^  c #BA4210",
"/  c #B1460F",
"(  c #A47911",
")  c #BB6E0E",
"_  c #C4460A",
"`  c #D2520F",
"'  c #E95505",
"]  c #FB5501",
"[  c #F15109",
"{  c #CD650B",
"}  c #FF6104",
"|  c #FD6902",
" . c #FE7502",
".. c #F77210",
"X. c #CA542F",
"o. c #E75425",
"O. c #CD7F27",
"+. c #911044",
"@. c #BE0549",
"#. c #963244",
"$. c #B23449",
"%. c #BE1460",
"&. c #C60849",
"*. c #CB1647",
"=. c #C90656",
"-. c #CC1558",
";. c #FE015B",
":. c #E31E5A",
">. c #C82B45",
",. c #CC334A",
"<. c #D53855",
"1. c #D32F51",
"2. c #F3394E",
"3. c #E83D53",
"4. c #E42F4A",
"5. c #D4166D",
"6. c #D6196A",
"7. c #DA1A72",
"8. c #D71771",
"9. c #CB0E68",
"0. c #FF0765",
"q. c #E21D71",
"w. c #F71767",
"e. c #E8226D",
"r. c #F5296E",
"t. c #FD2D6E",
"y. c #F02766",
"u. c #FF2F72",
"i. c #F42971",
"p. c #FF3072",
"a. c #ED2172",
"s. c #DD3664",
"d. c #8C546D",
"f. c #B15973",
"g. c #A7535C",
"h. c #F3455C",
"j. c #EE4259",
"k. c #DA5A78",
"l. c #CF4E6B",
"z. c #E64B65",
"x. c #EB526E",
"c. c #E4536D",
"v. c #F5546F",
"b. c #E85B77",
"n. c #FB5E7B",
"m. c #F85776",
"M. c #F94A67",
"N. c #CF666B",
"B. c #FC607E",
"V. c #F2617E",
"C. c #DE5B50",
"Z. c #BA890D",
"A. c #FC8A01",
"S. c #FF9301",
"D. c #F99801",
"F. c #F08F09",
"G. c #DFBA00",
"H. c #E5A600",
"J. c #FEAE00",
"K. c #FAA501",
"L. c #E0B100",
"P. c #E9B800",
"I. c #FBBE02",
"U. c #FAB501",
"Y. c #FFB018",
"T. c #FFA12C",
"R. c #F5AF2D",
"E. c #E79D24",
"W. c #FDC400",
"Q. c #FECB01",
"!. c #FBC70B",
"~. c #FED302",
"^. c #FDCD12",
"/. c #FECE1A",
"(. c #FED417",
"). c #FFEF1D",
"_. c #FFC926",
"`. c #FFD323",
"'. c #FFDC2A",
"]. c #FED52B",
"[. c #FFDC34",
"{. c #FED936",
"}. c #EEC72D",
"|. c #FFE43A",
" X c #FEF238",
".X c #FFF027",
"XX c #F3D245",
"oX c #E9E14A",
"OX c #FEE643",
"+X c #FEED4C",
"@X c #FEE947",
"#X c #FFF24D",
"$X c #FFF242",
"%X c #FFF452",
"&X c #FFF957",
"*X c #FDED50",
"=X c #FFF466",
"-X c #FFF47B",
";X c #FF508A",
":X c #FE6482",
">X c #FC6C8D",
",X c #F46C8C",
"<X c #FC6E95",
"1X c #FC7294",
"2X c #FD7599",
"3X c #FC7A9E",
"4X c #E86D8E",
"5X c #FC7DA2",
"6X c #E57DA2",
"7X c #798C88",
"8X c #B8BBB9",
"9X c #BB848B",
"0X c #D385AC",
"qX c #D689B0",
"wX c #E884AB",
"eX c #FC81A5",
"rX c #FC84AB",
"tX c #F686AC",
"yX c #EC8CB3",
"uX c #FD8BB3",
"iX c #FD8EB8",
"pX c #F98AB3",
"aX c #FE93BC",
"sX c #C1BABA",
"dX c #FFF68E",
"fX c #FEF8AF",
"gX c #EE98C3",
"hX c #FE96C2",
"jX c #F49AC4",
"kX c #FD99C5",
"lX c #FE9ECB",
"zX c #F997C6",
"xX c #FFA0CE",
"cX c #F7A0C9",
"vX c #FFA3D1",
"bX c #FDAAD1",
"nX c #EBA5C5",
"mX c #FFC4DE",
"MX c #FEFBD6",
"NX c #FEFEFE",
"BX c #FEFDF4",
"VX c #FEFBE3",
"CX c None",
/* pixels */
"CXCXCXCXCXCXCXCXCXCXCXCXCXCXCXCXCXCXCXCXCXCXCXCXCXCXCXCXCXCXCXCXCXCXCXCXCXCXCXCXCXCXCXCXCXCXCXCXCXCX",
"CXCXCXCXCXCXCXCXCXCXCXCXCXCXCXCXCXCXCXCXCXCXCXCXCXCXCXCXCXCXCXCXCXCXCXCXCXCXCXCXCXCXCXCXCXCXCXCXCXCX",
"CXCXCXCXCXCXCXCXCXCXCXCXCXCXCXCXCXCXCXCXCXCXCXCX* @ @ @ # # @ @ @ @ # = CXCXCXCXCXCXCXCXCXCXCXCXCXCX",
"CXCXCXCXCXCXCXCXCXCXCXCXCXCXCXCXCXCXCXCXCX.   % < l x U z.c.c.R J x 8 &     X CXCXCXCXCXCXCXCXCXCXCX",
"CXCXCXCXCXCXCXCXCXCXCXCXCXCXCXCXCXCXCXCX- 5 N S #.k.b.V.2X3X3X:Xb.k.f.d.S q - CXCXCXCXCXCXCXCXCXCXCX",
"CXCXCXCXCXCXCXCXCXCXCXCXCXCXCXCXCXCXCXX & q Y h.>XlXbXvXxXxXvXvXvXvXbXxXQ x % * CXCXCXCXCXCXCXCXCXCX",
"CXCXCXCXCXCXCXCXCXCXCXCXCXCXCXCXCXCXq A ,.k.yXiXhXlXlXlXlXlXxXlXlXlXlXlXtXyXqX$.j $ CXCXCXCXCXCXCXCX",
"CXCXCXCXCXCXCXCXCXCXCXCXCXCXCXCXCX@ N >.:X5XvXvXvXvXxXxXxXxXxXxXlXvXlXlXvXvXzX4X$.o CXCXCXCXCXCXCXCX",
"CXCXCXCXCXCXCXCXCXCXCXX     X       #.m.iXvXlXlXlXlXlXvXlXlXxXxXxXlXxXxXlXlXzXvX0X% - + CXCXCXCXCXCX",
"CXCXCXCXCXCXCXCXCXCXCX< 9 M C $.l.l.k.1XaXvXlXxXlXlXxXlXlXvXvXxXxXxXxXxXxXxXxXvXwXx i + CXCXCXCXCXCX",
"CXCXCXCXCXCXCXCXCXCX2 0 D 1.3.v.>XB.1XeXhXvXlXxXvXvXlXvXvXcXjXkXzXlXlXxXzXzXhXxXeX2.s . CXCXCXCXCXCX",
"CXCXCXCXCXCXCXCXX 6 q J b.5XkXlXlXeX3X5XhXxXxXxXlXlXlXlXvX6Xo :.<XlXvXgX& &.;XhXxXkXd.o + CXCXCXCXCX",
"CXCXCXCXCXCXCXCX. 9 D b.5XhXlXvXlXhXuX5XhXvXlXxXlXxXlXxXvXnX8Xf.l.vXxXlXsX9X@.jXxXxXl.l C q CXCXCXCX",
"CXCXCXCXCXCXCXCX. M 1.5XaXvXlXlXlXvXkX3XhXxXxXlXxXxXxXvXzXmXNX7Xg bXlXvXNX8X  nXxXxXb.W 2.S   CXCXCX",
"CXCXCXCXCXCXCXCX  C h.5XaXvXlXvXxXxXxXlXlXlXxXxXxXxXlXlXvXyXN.s h xXxXcXN.#.= gXxXxX>XV.5Xl.l = CXCX",
"CXCXCXCXCXCXCXCX  C 3.5XpXhXlXlXxXxXlXaXlXvXlXxXlXxXlXlXvXqXj < h xXxXjXA 7 > gXxXxX2X1XaXb.>.= CXCX",
"CXCXCXCXCXCXCXCX  M ,.tXeXeXcXbXlXxXhX3XhXvXxXxXxXxXxXxXvXqX    d.lXvXgX,   : gXvXlXrXuXvX3Xx.= CXCX",
"CXCXCXCXCXCXCXCXCXCXCXh.>XrXrXuXuXuXrX5XhXxXxXuX>X2X<X<XlXyXJ 8 h lXxXgX4.k d wXuXuX>X2XbX3Xx.= CXCX",
"CXCXCXCXCXCXCXCXCXCXCXJ l.6X,X2X2X2X3XeXhXxXvX5XM.n.m.m.kXiX2.D f.kXvXhXh.>.S ,X2X3Xm.>XcX1Xz.= CXCX",
"CXCXCXCXCXCXCXCXCXCXCXX & 0 Y M.:Xn.:XeXhXxXvX<X;.w.0.0.kXiXm.W x.xXxXkX:Xh.Y ;.0.w.Y z.rXv.U * CXCX",
"CXCXCXCXCXCXCXCXCXCXCXCX- 6 N D <.,X5X5XhXvXvXhXuXuXuXuXlXkXiXpXiXxXxXlXiXpXtXuX5X<X3.4.k.$.N CXCXCX",
"CXCXCXCXCXCXCXCXCXCXCXCXCXX   w V 4XeX5XaXlXlXxXvXvXvXxXxXxXvXvXvXlXzXjXvXvXvXvXhX5Xz.U z 7   CXCXCX",
"CXCXCXCXCXCXCXCXCXCXCXCXCXCX$ - 5 c.1XeX5XrXvXxXxXlXxXlXxXxXlXxXhX5Xz.D xXvXlXrX2Xn.#.< = CXCXCXCXCX",
"CXCXCXCXCXCXCXCXCXCXCXCXCXCX6 q A C.v.1X3XrXiXiXiXxXxXxXxXxXxXxXlXhX6X6XiXiXiX<X:Xs.s * CXCXCXCXCXCX",
"CXCXCXCXCXCXCXCXCXCXCXCXCXCXi A *.I 3.n.2X5X5X3X5XlXlXlXlXlXlXkXlXlXxXlX5X5X5X:Xz.V 5 + CXCXCXCXCXCX",
"CXCXCXCXCXCXCXCXCXCXCXCXCXX 5.a.t.L 1.:X:XB.:X:X>X5XrXrXrXrXrXrXrXrXeXeX:X:X:X:Xl.7 2 + CXCXCXCXCXCX",
"CXCXCXCXCXCXCXCXCXCXCXCX9 m CXi.u.:.1.z.b.B.:Xn.:X<X1X1X1X1X1X1X1X1X1X<Xn.n.n.c.$.% 2 CXCXCXCXCXCXCX",
"CXCXCXCXCXCXCXCXCXCXCX. M *.CXCXu.u.y.x x.:Xn.n.n.m.n.n.n.n.n.n.n.n.n.n.n.:X:XP M X CXCXCXCXCXCXCXCX",
"CXCXCXCXCXCXCXCXCXCXCX. m L r.u.u.t.t.t.1.>.2.v.:XB.:X:XB.:XB.:X:X:X:Xn.j.,.P N 6   CXCXCXCXCXCXCXCX",
"CXCXCXCXCXCXCXCXCXCXCXO m L t.u.t.t.t.i.-.&.:.3.x.x.x.x.v.v.v.v.v.c.x.z.W *.&.+.S +.CXCXCXCXCXCXCXCX",
"CXCXCXCXCX5 5 0 5 5 5   m P t.u.p.p.r.5.8.7.7.=.V Z R W W W W W R V V V V -.8.8.8.7.p O CXCXCXCXCXCX",
"CXCXCX; b ' H.L.L.L.L.L.O.Z *.*.&.&.@.p p +.p A L 9 m N N A P P P 6.6.6.-.e.i.i.e.5.a . s CXCXCXCXCX",
"CXCXCXn { A._.].`.'.`.~.E.X.X.T E T T ~ c c c G X.v v v c b L Z @.8.5.7.5.a.p.t.r.7.+.a 0 0 CXCXCXCX",
"CXCXt ] D.Q.OX%X%X%X+XW.Q.Q.| ] } } } ] } ] } } ] } } }  .o.Z L *.5.5.5.5.e.p.t.t.t.e.%.5 5 4 CXCXCX",
"CXCXt ] S.Q.@X%X#X%X#XOX|.OXXX_.J.J.J.J.J.J.J.J.J.J.J.J. .[ o.b B *.6.5.8.7.e.i.t.t.e.%.& / ` 5 CXCX",
"CXCXr ' A.I.OX%X*X%X%X%X&X&X&X+X(.`./.~.~.Q.~.Q.~.Q.~.Q.A. . ./ n C -.6.5.5.8.i.t.t.7.-.y ..A.n CXCX",
"CXCXCX3 ^  .I.'.&X%X%X%X%X%X#X*X+X%X@XW.Q.W.Q.Q.Q.!.Q.W.Q.J.] } ` * M @.5.8.8.8.7.7.9.3.] J.W.] / 2 ",
"CXCXCXCXb _ Z.Z.R.{.|.%X%X#X%X%X%X%X+X{.|.|.W.W.W.Q.W.Q.Q.W.D.J.S._ o.o.=.=.=.=.=.=.3.C.D.W.W.J.) 1 ",
"CXCXCXCXCX4 * k ] D.(.*X+X#X#X%X#X%X%X&X&X*X_._._.^.^.^.^.^.^.(.I... ...F F F F E F | S.~.Q.Q.~.Z.2 ",
"CXCXCXCXCXCXCXCXs ~ ~ ..Y.(./././.@X%X+X%X#X).)..X#X+X#X#X+X#X#X*X*X].I.I.I.I.I.I.I.I.W.W.Q.W. .` 1 ",
"CXCXCXCXCXCXCXCXi u s _  .J.W.Q.Q.+X%X%X#X=XfXfXfX&X#X%X%X%X%X*X%X%XOX[.[.[.[.[.{.{.[.[.[.(.I.` / u ",
"CXCXCXCXCXCXCXCXCXCXCX+ ^ | W.Q.W.+X&X%X$X-XNXNXNX=X#X%X%X#X%X%X%X+X%X&X%X&X%X&X&X&X%X#X#X'.P.d CXCX",
"CXCXCXCXCXCXCXCXCXCXCXCXn ~ W.Q.W.+X%X%X$X-XNXNXNX=X#X%X&X@X`.`.[.%X%X%X#X%X%X#X#X*X XdXBXdX(.o.^ 1 ",
"CXCXCXCXCXCXCXCXCXCXCXCXCXr H.W.W.@X%X%X$X-XMXMXMX=X#X%X@X{.W.Q./.@X@X@X+X%X%X%X%X%X$XdXVXdX|.Y.) 1 ",
"CXCXCXCXCXCXCXCXCXCXCXCX0 y ] S.~.@X&X%X#X#X X X X%X%X%X`.Q.Q.Q.Q.Q.Q.(.#X%X%X%X%X%X%X#X.X#X+X~.Z.2 ",
"CXCXCXCXCXCXCXCXCXCXCXCXCXCXb { A.`.|.%X&X%X&X+X].'._.T.( ( ( ( ( ( ( ( T.T.T.`.|.%X%X%X&X&X+XS.{ 1 ",
"CXCXCXCXCXCXCXCXCXCXCXCXCXCX; H ' H.}.oXoXoXoX}.L.P.F.K 9 2 3 3 3 3 1 9 ' ' ' L.}.oXoXoXoXoXXX' ^ 1 ",
"CXCXCXCXCXCXCXCXCXCXCXCXCXCXCXCXe e e e e e e r r 0 r r CXCXCXCXCXCXCXCXr r r r r r e e e e 0 t CXCX",
"CXCXCXCXCXCXCXCXCXCXCXCXCXCXCXCXCXCXCXCXCXCXCXCXCXCXCXCXCXCXCXCXCXCXCXCXCXCXCXCXCXCXCXCXCXCXCXCXCXCX",
"CXCXCXCXCXCXCXCXCXCXCXCXCXCXCXCXCXCXCXCXCXCXCXCXCXCXCXCXCXCXCXCXCXCXCXCXCXCXCXCXCXCXCXCXCXCXCXCXCXCX"
};
