/* XPM */
static char *_c89e6c268cb4dc0bcfd3504de36142dsBf7fffs6l5Rl7a0[] = {
/* columns rows colors chars-per-pixel */
"50 50 243 2 ",
"   c None",
".  c #000302",
"X  c #000903",
"o  c #040A0C",
"O  c #180404",
"+  c #001105",
"@  c #040C13",
"#  c #1A0F15",
"$  c #1A1016",
"%  c #0E1412",
"&  c #280401",
"*  c #380607",
"=  c #290915",
"-  c #27141A",
";  c #390D16",
":  c #0E0022",
">  c #331926",
",  c #33232F",
"<  c #172730",
"1  c #4A0804",
"2  c #4C0015",
"3  c #470915",
"4  c #520016",
"5  c #580B19",
"6  c #5B1217",
"7  c #4E0F0B",
"8  c #660205",
"9  c #770000",
"0  c #770518",
"q  c #681817",
"w  c #76181C",
"e  c #670219",
"r  c #662115",
"t  c #66231A",
"y  c #6D221A",
"u  c #752A0F",
"i  c #541023",
"p  c #691A22",
"a  c #7C063C",
"s  c #700A29",
"d  c #772528",
"f  c #4B2519",
"g  c #7C4516",
"h  c #5C3352",
"j  c #7D5069",
"k  c #940000",
"l  c #8E0D1B",
"z  c #A60206",
"x  c #B70018",
"c  c #B40610",
"v  c #8C3A05",
"b  c #923B05",
"n  c #9A3816",
"m  c #8C2E16",
"M  c #880B26",
"N  c #9B0428",
"B  c #871828",
"V  c #8D0636",
"C  c #B60127",
"Z  c #B61929",
"A  c #B90337",
"S  c #A4062D",
"D  c #922634",
"F  c #AB2637",
"G  c #BE3A30",
"H  c #B43128",
"J  c #AB3B10",
"K  c #D1050F",
"L  c #E93D00",
"P  c #C40D3A",
"I  c #C91B3C",
"U  c #D51B39",
"Y  c #D51827",
"T  c #EA1930",
"R  c #C83A2C",
"E  c #DD2739",
"W  c #C73B31",
"Q  c #EA2C3C",
"!  c #F22A3B",
"~  c #DA2513",
"^  c #995114",
"/  c #BA4210",
"(  c #B1460F",
")  c #A47911",
"_  c #BB6E0E",
"`  c #C4460A",
"'  c #D2520F",
"]  c #E95505",
"[  c #FB5501",
"{  c #F15109",
"}  c #CD650B",
"|  c #FF6104",
" . c #FD6902",
".. c #FE7502",
"X. c #F77210",
"o. c #CA542F",
"O. c #E75425",
"+. c #CD7F27",
"@. c #911044",
"#. c #BE0549",
"$. c #963244",
"%. c #B23449",
"&. c #BE1460",
"*. c #C60849",
"=. c #CB1647",
"-. c #C90656",
";. c #CC1558",
":. c #FE015B",
">. c #E31E5A",
",. c #C82B45",
"<. c #CC334A",
"1. c #D53855",
"2. c #D32F51",
"3. c #F3394E",
"4. c #E83D53",
"5. c #E42F4A",
"6. c #D4166D",
"7. c #D6196A",
"8. c #DA1A72",
"9. c #D71771",
"0. c #CB0E68",
"q. c #FF0765",
"w. c #E21D71",
"e. c #F71767",
"r. c #E8226D",
"t. c #F5296E",
"y. c #FD2D6E",
"u. c #F02766",
"i. c #FF2F72",
"p. c #F42971",
"a. c #FF3072",
"s. c #ED2172",
"d. c #DD3664",
"f. c #8C546D",
"g. c #B15973",
"h. c #A7535C",
"j. c #F3455C",
"k. c #EE4259",
"l. c #DA5A78",
"z. c #CF4E6B",
"x. c #E64B65",
"c. c #EB526E",
"v. c #E4536D",
"b. c #F5546F",
"n. c #E85B77",
"m. c #FB5E7B",
"M. c #F85776",
"N. c #F94A67",
"B. c #CF666B",
"V. c #FC607E",
"C. c #F2617E",
"Z. c #DE5B50",
"A. c #BA890D",
"S. c #FC8A01",
"D. c #FF9301",
"F. c #F99801",
"G. c #F08F09",
"H. c #DFBA00",
"J. c #E5A600",
"K. c #FEAE00",
"L. c #FAA501",
"P. c #E0B100",
"I. c #E9B800",
"U. c #FBBE02",
"Y. c #FAB501",
"T. c #FFB018",
"R. c #FFA12C",
"E. c #F5AF2D",
"W. c #E79D24",
"Q. c #FDC400",
"!. c #FECB01",
"~. c #FBC70B",
"^. c #FED302",
"/. c #FDCD12",
"(. c #FECE1A",
"). c #FED417",
"_. c #FFEF1D",
"`. c #FFC926",
"'. c #FFD323",
"]. c #FFDC2A",
"[. c #FED52B",
"{. c #FFDC34",
"}. c #FED936",
"|. c #EEC72D",
" X c #FFE43A",
".X c #FEF238",
"XX c #FFF027",
"oX c #F3D245",
"OX c #E9E14A",
"+X c #FEE643",
"@X c #FEED4C",
"#X c #FEE947",
"$X c #FFF24D",
"%X c #FFF242",
"&X c #FFF452",
"*X c #FFF957",
"=X c #FDED50",
"-X c #FFF466",
";X c #FFF47B",
":X c #FF508A",
">X c #FE6482",
",X c #FC6C8D",
"<X c #F46C8C",
"1X c #FC6E95",
"2X c #FC7294",
"3X c #FD7599",
"4X c #FC7A9E",
"5X c #E86D8E",
"6X c #FC7DA2",
"7X c #E57DA2",
"8X c #798C88",
"9X c #B8BBB9",
"0X c #BB848B",
"qX c #D385AC",
"wX c #D689B0",
"eX c #E884AB",
"rX c #FC81A5",
"tX c #FC84AB",
"yX c #F686AC",
"uX c #EC8CB3",
"iX c #FD8BB3",
"pX c #FD8EB8",
"aX c #F98AB3",
"sX c #FE93BC",
"dX c #C1BABA",
"fX c #FFF68E",
"gX c #FEF8AF",
"hX c #EE98C3",
"jX c #FE96C2",
"kX c #F49AC4",
"lX c #FD99C5",
"zX c #FE9ECB",
"xX c #F997C6",
"cX c #FFA0CE",
"vX c #F7A0C9",
"bX c #FFA3D1",
"nX c #FDAAD1",
"mX c #EBA5C5",
"MX c #FFC4DE",
"NX c #FEFBD6",
"BX c #FEFEFE",
"VX c #FEFDF4",
"CX c #FEFBE3",
/* pixels */
"                                                                                                    ",
"                                                                                                    ",
"                                                = # # # $ $ # # # # $ -                             ",
"                                          X . & 1 z c Y x.v.v.E K c 9 * . . @                       ",
"                                        ; 6 B D $.l.n.C.3X4X4X>Xn.l.g.f.D w ;                       ",
"                                      o * w T j.,XzXnXbXcXcXbXbXbXbXnXcX! c & =                     ",
"                                    w S <.l.uXpXjXzXzXzXzXzXcXzXzXzXzXzXyXuXwX%.k @                 ",
"                                  # B ,.>X6XbXbXbXbXcXcXcXcXcXcXcXcXzXzXbXbXxX5X%.O                 ",
"                      o . . o . . . $.M.pXbXzXzXzXzXzXbXzXzXcXcXcXcXcXcXzXzXzXbXqX& ; @             ",
"                      1 0 N Z %.z.z.l.2XsXbXzXcXzXzXcXzXzXbXbXcXcXcXcXzXbXcXzXbXeXc p @             ",
"                    3 q F 2.4.b.,XV.2XrXjXbXzXcXbXbXzXbXbXvXkXlXcXbXcXbXkXxXjXzXrX3.d X             ",
"                o 7 w K n.6XlXzXzXrX4X6XjXcXcXcXzXzXzXzXbX7XO >.:XzXbXkX* *.:XjXcXlXf.O @           ",
"                X 0 F n.6XjXzXbXzXjXiX6XjXbXzXcXzXcXzXcXbXmX9Xg.z.bXcXkXdX0X#.kXcXcXz.z Z w         ",
"                X N 2.6XsXbXzXzXzXbXlX4XjXcXcXzXcXcXcXbXxXMXBX8Xh nXzXbXBX9X. mXcXcXn.Q 3.D .       ",
"                . Z j.6XsXbXzXbXcXcXcXzXzXzXcXcXcXcXzXzXbXuXB.d j cXcXvXB.$.- hXcXcX,XC.6Xz.z -     ",
"                . Z 4.6XaXjXzXzXcXcXzXsXzXbXzXcXzXcXzXzXbXwXk 1 j cXcXkXS 8 , hXcXcX3X2XsXn.,.-     ",
"                . N <.yXrXrXvXnXzXcXjX4XjXbXzXzXcXcXbXzXbXwX. . f.zXcXhX< . , xXbXcXaXtXbX4Xc.-     ",
"                      j.,XtXtXiXiXiXtX6XjXcXbXiX1X3X1X,XzXuXK 9 j cXcXkX5.l f 7XiXiX,X6XnX4Xc.-     ",
"                      K z.7X<X3X3X3X4XrXjXcXbX6XN.m.M.M.lXpX3.F g.cXbXjXj.W D <X3X1XM.>XvX2Xx.-     ",
"                      o * q T N.>Xm.>XrXjXcXbX3X:.e.q.q.lXpXM.Q x.cXcXlXV.j.T :.q.q.5.x.tXb.Y -     ",
"                        ; 7 B F 1.<X4X6XjXbXcXsXiXiXiXiXzXlXpXaXaXcXbXzXpXpXyXpX6X1X4.4.l.%.l       ",
"                          o . e C 5XrX6XsXzXcXcXbXbXbXcXcXcXbXbXbXzXxXkXbXbXbXcXjX6Xx.Y C 8 .       ",
"                            % ; 6 v.1XtX6XtXcXcXcXzXcXzXcXcXzXcXjXrXx.F zXcXvXtX3Xm.$.1 -           ",
"                            7 w S Z.b.2X4XtXsXpXpXcXcXcXcXcXcXcXlXsXeX7XpXsXpX3X>Xd.d &             ",
"                            p S =.U 4.m.3X6X6X4X6XzXzXzXzXzXzXlXzXzXcXzX6X4X4X>Xx.C 6 @             ",
"                          o 6.s.y.P 2.>X>XV.>X>X,X6XtXtXtXtXtXtXtXtXtX6X>X>X>X>Xz.8 3 @             ",
"                        0 M   p.i.>.2.x.n.V.>Xm.>X1X2X2X2X2X2X2X2X2X2X1Xm.m.V.v.%.& 3               ",
"                      X N =.    i.i.u.c c.>Xm.m.m.M.m.m.m.m.m.m.m.m.m.m.>Xm.m.=.N o                 ",
"                      X M P t.i.i.y.y.y.2.,.3.b.>XV.>X>XV.>XV.>X>X>X>Xm.k.<.I B 7 .                 ",
"                      + M P y.i.y.y.y.p.;.*.>.4.c.c.c.c.b.b.b.b.b.v.c.x.Q =.*.@.D @.                ",
"          6 6 q 6 6 6 . M I y.i.a.a.t.6.9.8.8.-.C A E Q Q Q Q Q E C C C C ;.9.9.9.8.a +             ",
"      : n ] J.P.P.P.P.P.+.A =.=.*.*.#.a a @.a S P 0 M B B S I I I 7.7.7.;.r.p.p.r.6.s X d           ",
"      m } S.`.[.'.].'.^.W.o.o.R W R R ^ v v v H o.b b b v n P A #.9.6.8.6.s.a.y.t.8.@.s q q         ",
"    y [ F.!.+X&X&X&X@XQ.!.!. .[ | | | [ | [ | | [ | | | ..O.A P =.6.6.6.6.r.a.y.y.y.r.&.6 6 5       ",
"    y [ D.!.#X&X$X&X$X+X X+XoX`.K.K.K.K.K.K.K.K.K.K.K.K...{ O.n V =.7.6.9.8.r.p.y.y.r.&.* ( ' 6     ",
"    t ] S.U.+X&X=X&X&X&X*X*X*X@X).'.(.^.^.!.^.!.^.!.^.!.S.....( m Z ;.7.6.6.9.p.y.y.8.;.u X.S.m     ",
"      4 / ..U.].*X&X&X&X&X&X$X=X@X&X#XQ.!.Q.!.!.!.~.!.Q.!.K.[ | ' = N #.6.9.9.9.8.8.0.4.[ K.Q.[ ( 3 ",
"        n ` A.A.E.}. X&X&X$X&X&X&X&X@X}. X XQ.Q.Q.!.Q.!.!.Q.F.K.D.` O.O.-.-.-.-.-.-.4.Z.F.Q.Q.K._ 2 ",
"          5 = l [ F.).=X@X$X$X&X$X&X&X*X*X=X`.`.`././././././.).U.X...X.G G G G W G  .D.^.!.!.^.A.3 ",
"                d ^ ^ X.T.).(.(.(.#X&X@X&X$X_._.XX$X@X$X$X@X$X$X=X=X[.U.U.U.U.U.U.U.U.Q.Q.!.Q...' 2 ",
"                p i d ` ..K.Q.!.!.@X&X&X$X-XgXgXgX*X$X&X&X&X&X=X&X&X+X{.{.{.{.{.}.}.{.{.{.).U.' ( i ",
"                      @ /  .Q.!.Q.@X*X&X%X;XBXBXBX-X$X&X&X$X&X&X&X@X&X*X&X*X&X*X*X*X&X$X$X].I.f     ",
"                        m ^ Q.!.Q.@X&X&X%X;XBXBXBX-X$X&X*X#X'.'.{.&X&X&X$X&X&X$X$X=X.XfXVXfX).O./ 2 ",
"                          t J.Q.Q.#X&X&X%X;XNXNXNX-X$X&X#X}.Q.!.(.#X#X#X@X&X&X&X&X&X%XfXCXfX XT._ 2 ",
"                        q u [ D.^.#X*X&X$X$X.X.X.X&X&X&X'.!.!.!.!.!.!.).$X&X&X&X&X&X&X$XXX$X@X^.A.3 ",
"                            n } S.'. X&X*X&X*X@X[.].`.R.) ) ) ) ) ) ) ) R.R.R.'. X&X&X&X*X*X@XD.} 2 ",
"                            : J ] J.|.OXOXOXOX|.P.I.G.L 0 3 4 4 4 4 2 0 ] ] ] P.|.OXOXOXOXOXoX] / 2 ",
"                                r r r r r r r t t q t t                 t t t t t t r r r r q y     ",
"                                                                                                    ",
"                                                                                                    "
};
