/* XPM */
static char *_d853d07330f42d7ba21c8652a52a37e06Knfb2V6RHLiRKz[] = {
/* columns rows colors chars-per-pixel */
"50 50 171 2 ",
"   c None",
".  c #DA9314",
"X  c #D89219",
"o  c #E38F00",
"O  c #E49401",
"+  c #EC9500",
"@  c #E49A00",
"#  c #EC9D00",
"$  c #E39B0D",
"%  c #EB9E0D",
"&  c #F39E00",
"*  c #E29A15",
"=  c #E99E17",
"-  c #E49B1C",
";  c #EEA100",
":  c #EFA10C",
">  c #F5A300",
",  c #FAA600",
"<  c #F7A900",
"1  c #FBA900",
"2  c #F8A70F",
"3  c #FBAA0E",
"4  c #EEA113",
"5  c #F5A617",
"6  c #FBAA14",
"7  c #F5A619",
"8  c #F7A81C",
"9  c #FBAB1A",
"0  c #C78E2E",
"q  c #DF9A20",
"w  c #DD9B2B",
"e  c #DC9C35",
"r  c #D5993B",
"t  c #DA9D3B",
"y  c #E09A26",
"u  c #E29E2E",
"i  c #EAA32D",
"p  c #FBAC22",
"a  c #F1A62A",
"s  c #E6A237",
"d  c #E4A13B",
"f  c #EDA739",
"g  c #EDA83F",
"h  c #F0AA35",
"j  c #F0A93E",
"k  c #A79671",
"l  c #A89772",
"z  c #AD9C76",
"x  c #B09E77",
"c  c #B09F78",
"v  c #B5A37C",
"b  c #B9A77E",
"n  c #BBA87F",
"m  c #CF9A4A",
"M  c #D19743",
"N  c #D79D47",
"B  c #D99E43",
"V  c #D49E4C",
"C  c #DA9F48",
"Z  c #CC9E59",
"A  c #D9A047",
"S  c #D6A14E",
"D  c #DBA14B",
"F  c #D4A255",
"G  c #D9A354",
"H  c #D3A35C",
"J  c #DAA75B",
"K  c #D7A85F",
"L  c #DBA95E",
"P  c #E3A242",
"I  c #EDAA47",
"U  c #E5A74F",
"Y  c #E7A94D",
"T  c #EDAB4B",
"R  c #E4A751",
"E  c #E5A955",
"W  c #ECAF57",
"Q  c #E5AD5C",
"!  c #E6B05F",
"~  c #EDB25A",
"^  c #CDA565",
"/  c #CCA86D",
"(  c #D7A964",
")  c #DBAA61",
"_  c #D3AA6B",
"`  c #D8AD6C",
"'  c #C8A871",
"]  c #C7AD7B",
"[  c #C8AC79",
"{  c #D4AE73",
"}  c #D5B175",
"|  c #DBB373",
" . c #D5B37B",
".. c #D9B67B",
"X. c #D6B87F",
"o. c #DFB978",
"O. c #E5AF63",
"+. c #E6B264",
"@. c #E9B464",
"#. c #E6B56A",
"$. c #E5B671",
"%. c #E6BC77",
"&. c #EABC72",
"*. c #E4BD7B",
"=. c #E6C17F",
"-. c #E9C27D",
";. c #BAA780",
":. c #BDAB82",
">. c #C1AF85",
",. c #C4B186",
"<. c #CAB485",
"1. c #C6B389",
"2. c #C9B68B",
"3. c #CDB98E",
"4. c #D4B681",
"5. c #D4B985",
"6. c #DABB83",
"7. c #D4BC8C",
"8. c #D9BF8A",
"9. c #D2BE91",
"0. c #E1BE81",
"q. c #DCC28D",
"w. c #D6C294",
"e. c #DBC595",
"r. c #DBC798",
"t. c #DDC99A",
"y. c #E5C384",
"u. c #E9C584",
"i. c #EAC986",
"p. c #E5C68C",
"a. c #E6C88D",
"s. c #EACB8B",
"d. c #E0C692",
"f. c #E4CB95",
"g. c #EBCE94",
"h. c #E3CD9D",
"j. c #EACF98",
"k. c #EDD295",
"l. c #E7D19E",
"z. c #ECD59B",
"x. c #EEDB9D",
"c. c #F0D69A",
"v. c #F0DA9F",
"b. c #EFE09E",
"n. c #E6D1A1",
"m. c #EBD5A5",
"M. c #EEDCA2",
"N. c #EEDAA9",
"B. c #F0DDA2",
"V. c #F2DDAA",
"C. c #EFE2A3",
"Z. c #EFE4A9",
"A. c #F0E2A5",
"S. c #F4E2AD",
"D. c #F9E3AF",
"F. c #F0E9AB",
"G. c #EFEAB3",
"H. c #F5E5B1",
"J. c #FAE6B1",
"K. c #F3EBB4",
"L. c #FDEBB5",
"P. c #F3EEBB",
"I. c #FDEEB8",
"U. c #F5F3BD",
"Y. c #FEF2BC",
"T. c #FBF8BE",
"R. c #F5F5C5",
"E. c #FEF7C0",
"W. c #FEFAC2",
"Q. c #F6F6CA",
"!. c #F6F8CD",
/* pixels */
"                                        D.S.S.H.H.J.H.J.H.J.H.D.S.J.D.J.H.H.D.V.w.2.                ",
"          V.J.J.J.J.L.I.Y.Y.E.W.W.W.W.W.W.W.W.W.W.W.W.W.W.W.W.E.W.W.Y.Y.Y.Y.Y.Y.L.n.f.w.2.          ",
"      7.D.Y.I.I.I.I.I.I.I.L.I.I.L.I.Y.I.L.L.I.J.I.L.L.L.L.J.J.J.J.J.J.J.J.J.I.L.L.J.r.9.w.v         ",
"    3.D.L.L.I.J.D.S.V.Z.V.S.V.V.V.V.V.V.N.V.m.N.N.N.m.m.m.m.m.m.l.n.l.l.n.V.J.I.L.L.J.t.2.,.b       ",
"    h.L.L.L.J.J.m.w.5.5.X.<. . .} { } _ _ ^ 5./ H K J G V S N N A t t t r  .V.J.I.L.I.J.3.;.b       ",
"    I.L.L.J.L.m.m @ ; @ # ; ; > ; ; ; < ; ! C.y.; < < 1 < < < 1 1 1 1 < < + | V.J.I.I.L.w.b 3.:.    ",
"  N.E.L.L.J.N.m < 6 6 6 6 9 9 9 9 9 p 3 h z.C.M.#.< p 9 9 9 9 6 6 6 6 6 9 9 # _ V.J.I.L.r.v >.:.    ",
"  N.E.L.J.V.^ ; p 6 6 3 3 6 3 3 6 3 9 1 -.Z.Z.b.f.i 1 6 3 3 3 3 3 3 3 6 3 2 9 + | J.I.L.r.b >.3.    ",
"  V.Y.L.S.{ + p 3 3 6 3 3 3 3 6 3 9 1 T x.U.U.C.C.*.> 9 3 3 3 3 3 3 6 3 3 3 5 > d V.I.I.t.v :.2.,.  ",
"  V.Y.J.N.S < 9 3 3 3 3 3 6 3 3 3 6 > i.F.R.R.K.b.z.Y < 9 3 3 3 3 3 3 3 3 3 5 > d V.Y.I.t.;.:.:.3.  ",
"  V.E.L.n.B , 6 6 3 3 3 2 2 2 3 9 1 +.C.U.R.R.R.F.C.p.; 3 3 3 3 6 3 3 3 2 2 8 > e V.Y.I.t.v :.,.w.,.",
"  V.Y.L.n.e , 9 3 3 3 3 3 3 3 2 1 a k.G.R.R.R.Q.P.b.x.+.1 9 3 6 2 3 3 6 3 2 6 > s V.Y.Y.t.v :.,.7.1.",
"  V.Y.L.h.w , 6 3 3 2 3 3 2 6 p < %.A.R.R.R.Q.R.R.F.b.k.i 1 p 9 9 6 2 2 3 3 5 > d V.Y.I.t.v :.,.3.1.",
"  D.Y.J.f.q , 6 2 3 6 6 9 6 3 , I z.U.R.R.R.R.R.R.R.Z.C.-.# , , 1 1 6 9 5 6 5 > P V.Y.Y.t.v ,.:.3.1.",
"  S.I.L.f.* 3 9 9 9 3 , > > a T u.Z.R.R.R.R.R.R.R.Q.K.b.x.i.&.~ j 5 & > , , 5 > d V.Y.Y.t.v >.>.3.2.",
"  D.Y.J.e.$ 3 , < > 7 I @.u.s.x.C.U.Q.R.R.R.Q.R.R.Q.R.K.F.F.A.v.z.g.u.&.W f 7 # d S.Y.I.t.v :.>.2.1.",
"  J.Y.J.e.O > I @.-.s.x.C.Z.G.U.R.R.R.Q.R.Q.R.R.Q.R.R.Q.R.R.P.G.G.A.Z.C.M.z.k.%.S A.E.I.r.v >.,.2.2.",
"  L.Y.J.8.H s.z.C.F.G.K.R.R.R.R.R.R.Q.R.Q.R.Q.Q.R.Q.Q.Q.Q.Q.Q.Q.Q.R.R.U.F.C.C.m._ V.E.Y.t.v :.>.1.2.",
"  Y.Y.J.5.[ x.x.U.R.R.R.R.R.R.Q.R.Q.R.Q.Q.Q.Q.Q.Q.Q.Q.R.Q.R.Q.R.Q.R.Q.Q.Z.x.x.*.M H.Y.Y.r.v :.>.2.2.",
"  Y.Y.J.6.0 7.g.G.R.U.R.R.R.R.R.Q.Q.Q.Q.R.Q.Q.Q.Q.Q.Q.Q.Q.Q.Q.Q.R.Q.Q.F.x.x.a.. P H.Y.Y.t.v :.,.2.2.",
"  Y.Y.J.6.+ H 7.k.P.R.R.R.R.Q.R.Q.R.R.Q.Q.Q.Q.Q.Q.Q.Q.Q.R.Q.R.!.R.Q.K.x.v.j.N & R H.Y.Y.r.v >.>.1.2.",
"  W.Y.H...; > ^ 8.z.R.R.R.R.R.Q.R.R.Q.Q.R.Q.Q.Q.Q.Q.Q.Q.R.Q.!.Q.Q.P.b.x.z.L # < R H.E.Y.r.v :.>.2.2.",
"  W.Y.H...# 9 & ' e.v.R.R.R.R.R.Q.Q.Q.Q.R.Q.Q.Q.Q.Q.Q.Q.Q.Q.Q.Q.R.C.x.m.| # p & R H.E.Y.w.v >.>.2.2.",
"  W.I.H.} > p 1 - ] p.A.Q.R.Q.Q.Q.Q.Q.Q.Q.Q.!.!.Q.!.Q.Q.Q.Q.Q.Q.A.x.v.y.+ 6 9 & R H.E.Y.w.b :.>.2.2.",
"m.W.I.S.} # 9 6 , e <.a.H.!.R.Q.Q.Q.Q.Q.Q.!.Q.Q.Q.!.Q.Q.Q.Q.!.H.v.v.a.* , 9 8 > E K.T.Y.w.;.:.2.2.2.",
"m.W.Y.H.` > 9 3 9 , N <.g.P.Q.Q.Q.Q.Q.Q.Q.Q.!.!.Q.Q.Q.Q.Q.!.P.m.B.g.d < 9 3 9 & E L.T.Y.w.;.:.:.2.2.",
"m.W.Y.S.` > 9 6 3 9 , Z 5.A.Q.Q.Q.Q.Q.!.!.Q.Q.Q.!.!.Q.Q.!.!.H.x.v.J , 9 3 3 8 > Q K.T.Y.w.c :.:.2.2.",
"N.W.Y.S.( > 9 3 3 3 3 = 4.H.Q.Q.Q.Q.Q.Q.Q.Q.!.Q.Q.Q.!.Q.!.!.K.x.z.d 1 6 3 3 8 & Q L.R.T.w.;.:.:.2.2.",
"N.W.I.H.H > 9 3 3 6 1 i 5.H.Q.R.Q.Q.Q.Q.Q.!.Q.Q.!.Q.Q.Q.Q.!.P.x.x.Y , 6 3 3 9 & O.P.Y.Y.w.c :.:.3.2.",
"N.W.I.S.J < 9 3 3 6 , s 8.J.Q.Q.Q.Q.Q.Q.!.Q.Q.!.Q.Q.!.Q.Q.!.U.m.m.E , 9 3 6 9 & O.P.E.Y.w.v :.:.2.:.",
"N.W.I.N.F < 9 3 3 6 , P 8.R.Q.Q.Q.Q.Q.Q.Q.Q.Q.Q.Q.!.Q.!.Q.!.U.x.x.Q , 9 3 3 8 & +.I.W.Y.3.c :.:.2.:.",
"V.W.L.V.G , 9 3 3 6 , U 8.R.Q.Q.Q.Q.Q.Q.Q.!.!.!.Q.Q.Q.Q.Q.!.U.C.N.+., 9 3 3 8 # #.I.T.I.w.;.:.:.3.2.",
"V.W.L.N.V , 9 3 3 6 , G j.R.R.R.Q.Q.!.Q.P.A.A.R.Q.Q.Q.Q.Q.!.R.C.M.#.< 9 3 3 8 & #.I.E.I.9.c :.:.2.,.",
"V.W.I.N.C < 9 3 3 9 , K l.R.Q.Q.Q.R.K.N.c.g.g.c.B.K.Q.!.!.!.R.M.B.*., 9 3 3 8 & $.E.E.I.3.;.:.:.2.,.",
"V.W.L.N.N , 6 3 3 6 , ( m.Q.Q.P.H.v.k.g.f.8.5.d.f.c.z.H.P.Q.Q.A.M.=.& 9 3 2 7 & $.E.E.I.1.;.:.:.2.,.",
"V.W.I.m.C > 6 3 6 6 > | x.K.S.z.k.j.f.8.{ N * D | q.f.j.z.V.F.B.C.u.& 9 3 3 8 # 0.E.E.L.2.;.:.:.2.,.",
"V.Y.L.N.A > 8 3 3 6 > ..z.z.k.g.f.8.^ t & , 3 , & u ) 6.f.k.c.B.A.a.# 3 2 6 p + k.E.E.I.1.c :.:.1.:.",
"V.Y.L.U.q.@ 8 6 2 3 % 5.k.j.d.4.H y & , 9 6 3 9 9 , , % C } d.j.B.g.% 3 6 8 # y.R.E.W.L.1.;.:.;.3.:.",
"V.Y.Y.T.T.o.# p 8 9 4 4.e.} S * & 6 p 9 8 9 9 9 9 9 p 9 , & e ( q.%.% p 8 + u.W.W.W.W.J.,.v ;.:.1.,.",
"m.Y.Y.Y.T.K.) + & & & O X o & > , & & & & & > & & & & & & > & & O o & & + a.W.W.E.T.Y.N.>.;.;.:.<.>.",
",.L.I.Y.Y.T.G.*.+.+.O.Q ~ ! ! Q Q ! ! @.@.+.+.+.+.+.@.#.#.#.#.$.&.-.=.=.m.W.W.W.E.Y.V.t.1.v :.:.2.:.",
"c w.J.I.I.Y.T.T.U.U.U.U.U.U.U.T.Y.U.U.U.U.U.U.T.T.T.R.T.T.R.W.E.T.R.T.W.W.W.T.T.I.V.t.t.2.v ;.;.1.>.",
"n ,.w.L.Y.Y.Y.Y.Y.Y.Y.Y.E.T.E.E.W.W.W.T.T.W.T.W.W.W.T.W.W.W.W.W.T.T.T.W.W.W.T.Y.m.r.r.t.3.v ;.:.,.:.",
"  1.v r.H.L.L.L.L.I.I.Y.I.I.I.I.L.Y.Y.Y.Y.Y.Y.Y.Y.Y.Y.Y.Y.Y.I.Y.Y.I.Y.I.I.L.J.N.t.h.h.t.3.v ;.;.2.:.",
"  v >.v :.>.1.2.2.2.2.2.3.2.3.2.2.2.3.2.2.2.3.2.2.2.2.2.2.2.2.,.<.1.1.,.,.,.n :.,.3.3.3.:.v ;.;.2.:.",
"    k v v l l l l l l l l l l l k k l k l k k k k k k l k l k k k k k k k k k l k k l l l v n ;.2.:.",
"        z v v x x x x x x z x x v z x x v z v z x x z z z z z z z l z z x z z z z l l z l z v ;.2.n ",
"            z b v c z z z x x z z z z z z z z z z z z x x z z z z z z z l z l z l z z l z l z v 1.  ",
"                z v b n n b v v v v v v v v x v v v z x x v z x v z x x z z z x z x z z v x v n :.  ",
"                      z z z z x x z x x z z z z z z z x z z c c z z z x z z z z z z z z z l l z     "
};
