/* XPM */
static char *result[] = {
/* columns rows colors chars-per-pixel */
"50 50 171 2 ",
"   c #DA9314",
".  c #D89219",
"X  c #E38F00",
"o  c #E49401",
"O  c #EC9500",
"+  c #E49A00",
"@  c #EC9D00",
"#  c #E39B0D",
"$  c #EB9E0D",
"%  c #F39E00",
"&  c #E29A15",
"*  c #E99E17",
"=  c #E49B1C",
"-  c #EEA100",
";  c #EFA10C",
":  c #F5A300",
">  c #FAA600",
",  c #F7A900",
"<  c #FBA900",
"1  c #F8A70F",
"2  c #FBAA0E",
"3  c #EEA113",
"4  c #F5A617",
"5  c #FBAA14",
"6  c #F5A619",
"7  c #F7A81C",
"8  c #FBAB1A",
"9  c #C78E2E",
"0  c #DF9A20",
"q  c #DD9B2B",
"w  c #DC9C35",
"e  c #D5993B",
"r  c #DA9D3B",
"t  c #E09A26",
"y  c #E29E2E",
"u  c #EAA32D",
"i  c #FBAC22",
"p  c #F1A62A",
"a  c #E6A237",
"s  c #E4A13B",
"d  c #EDA739",
"f  c #EDA83F",
"g  c #F0AA35",
"h  c #F0A93E",
"j  c #A79671",
"k  c #A89772",
"l  c #AD9C76",
"z  c #B09E77",
"x  c #B09F78",
"c  c #B5A37C",
"v  c #B9A77E",
"b  c #BBA87F",
"n  c #CF9A4A",
"m  c #D19743",
"M  c #D79D47",
"N  c #D99E43",
"B  c #D49E4C",
"V  c #DA9F48",
"C  c #CC9E59",
"Z  c #D9A047",
"A  c #D6A14E",
"S  c #DBA14B",
"D  c #D4A255",
"F  c #D9A354",
"G  c #D3A35C",
"H  c #DAA75B",
"J  c #D7A85F",
"K  c #DBA95E",
"L  c #E3A242",
"P  c #EDAA47",
"I  c #E5A74F",
"U  c #E7A94D",
"Y  c #EDAB4B",
"T  c #E4A751",
"R  c #E5A955",
"E  c #ECAF57",
"W  c #E5AD5C",
"Q  c #E6B05F",
"!  c #EDB25A",
"~  c #CDA565",
"^  c #CCA86D",
"/  c #D7A964",
"(  c #DBAA61",
")  c #D3AA6B",
"_  c #D8AD6C",
"`  c #C8A871",
"'  c #C7AD7B",
"]  c #C8AC79",
"[  c #D4AE73",
"{  c #D5B175",
"}  c #DBB373",
"|  c #D5B37B",
" . c #D9B67B",
".. c #D6B87F",
"X. c #DFB978",
"o. c #E5AF63",
"O. c #E6B264",
"+. c #E9B464",
"@. c #E6B56A",
"#. c #E5B671",
"$. c #E6BC77",
"%. c #EABC72",
"&. c #E4BD7B",
"*. c #E6C17F",
"=. c #E9C27D",
"-. c #BAA780",
";. c #BDAB82",
":. c #C1AF85",
">. c #C4B186",
",. c #CAB485",
"<. c #C6B389",
"1. c #C9B68B",
"2. c #CDB98E",
"3. c #D4B681",
"4. c #D4B985",
"5. c #DABB83",
"6. c #D4BC8C",
"7. c #D9BF8A",
"8. c #D2BE91",
"9. c #E1BE81",
"0. c #DCC28D",
"q. c #D6C294",
"w. c #DBC595",
"e. c #DBC798",
"r. c #DDC99A",
"t. c #E5C384",
"y. c #E9C584",
"u. c #EAC986",
"i. c #E5C68C",
"p. c #E6C88D",
"a. c #EACB8B",
"s. c #E0C692",
"d. c #E4CB95",
"f. c #EBCE94",
"g. c #E3CD9D",
"h. c #EACF98",
"j. c #EDD295",
"k. c #E7D19E",
"l. c #ECD59B",
"z. c #EEDB9D",
"x. c #F0D69A",
"c. c #F0DA9F",
"v. c #EFE09E",
"b. c #E6D1A1",
"n. c #EBD5A5",
"m. c #EEDCA2",
"M. c #EEDAA9",
"N. c #F0DDA2",
"B. c #F2DDAA",
"V. c #EFE2A3",
"C. c #EFE4A9",
"Z. c #F0E2A5",
"A. c #F4E2AD",
"S. c #F9E3AF",
"D. c #F0E9AB",
"F. c #EFEAB3",
"G. c #F5E5B1",
"H. c #FAE6B1",
"J. c #F3EBB4",
"K. c #FDEBB5",
"L. c #F3EEBB",
"P. c #FDEEB8",
"I. c #F5F3BD",
"U. c #FEF2BC",
"Y. c #FBF8BE",
"T. c #F5F5C5",
"R. c #FEF7C0",
"E. c #FEFAC2",
"W. c #F6F6CA",
"Q. c #F6F8CD",
"!. c None",
/* pixels */
"!.!.!.!.!.!.!.!.!.!.!.!.!.!.!.!.!.!.!.!.A.A.A.G.H.A.G.H.G.H.G.S.S.H.A.H.G.G.S.B.q.1.!.!.!.!.!.!.!.!.",
"!.!.!.!.!.B.H.H.H.H.K.P.U.U.U.E.E.E.E.E.E.E.E.E.E.E.E.E.E.E.E.R.E.E.U.U.U.U.U.U.K.b.r.w.1.!.!.!.!.!.",
"!.!.!.6.S.U.P.P.P.P.P.P.P.P.P.P.P.P.U.P.K.P.P.H.P.K.K.K.K.H.K.H.H.H.H.G.H.H.P.K.K.S.e.8.q.v !.!.!.!.",
"!.!.2.S.K.K.P.H.S.A.A.A.B.B.B.B.B.B.B.B.B.B.n.M.M.M.n.n.n.n.n.b.k.b.k.k.b.B.H.P.K.P.S.r.<.<.v !.!.!.",
"!.!.g.K.K.K.H.H.n.0.6.,.3.3.| | [ [ { ) ) ~ 4.^ G J H F B A B N Z r r r e | B.H.P.P.K.H.6.-.;.!.!.!.",
"!.!.P.K.K.H.K.n.n + + - + - - - - - - , - Q V.t.- , , < , < , < < < , < > @ { B.S.P.P.K.w.c 1.;.!.!.",
"!.M.R.K.K.H.M.n , 8 5 5 8 5 8 8 8 8 i 2 g l.V.m.@., i 8 8 5 8 8 5 5 5 5 8 8 O ) B.H.P.P.e.c :.;.!.!.",
"!.M.R.K.H.B.~ - i 5 2 5 2 5 2 2 5 2 8 < =.C.C.v.d.u < 5 2 2 2 2 2 2 2 2 2 5 8 O } S.P.P.e.v ;.2.!.!.",
"!.B.U.K.A.[ O i 2 2 5 2 2 2 2 5 2 8 < Y v.L.I.V.V.&.: 8 2 2 2 2 2 2 5 2 2 2 4 , s A.U.K.r.c ;.<.:.!.",
"!.B.U.H.M.A , 8 2 2 2 2 2 5 2 2 2 5 , u.D.T.T.J.v.l.U , 8 2 5 2 2 2 2 2 2 2 4 : s M.P.P.r.-.;.>.2.!.",
"!.B.R.K.b.N > 5 5 2 2 2 1 2 2 2 8 < O.V.I.T.T.T.D.V.i.- 2 5 2 2 2 2 2 2 4 2 4 : s M.U.P.r.c ;.>.8.<.",
"!.B.U.K.b.w > 8 2 2 2 2 2 2 2 5 < u f.J.T.T.T.T.L.v.z.O.< 8 2 2 5 2 1 2 2 1 4 : a B.U.U.e.-.;.>.8.<.",
"!.B.U.K.g.q > 5 2 2 2 2 2 2 5 8 > $.C.T.T.T.T.T.T.F.v.j.u < 8 8 5 5 2 5 2 2 7 : s B.U.P.r.c ;.;.2.1.",
"!.S.U.H.d.0 > 5 1 2 4 5 8 5 5 > P l.J.T.T.T.T.T.T.I.C.V.&.% > > < 2 5 8 6 4 5 % s B.U.P.e.c ;.>.2.<.",
"!.A.P.K.d.& 2 8 8 8 2 > : : p Y u.D.T.T.T.W.T.W.T.W.J.v.z.u.%.! h 6 % : > > 5 : L A.U.U.r.v ;.:.1.<.",
"!.S.U.H.w.# 2 > , : 6 P +.y.a.l.V.I.W.T.T.T.W.T.T.W.T.J.D.D.Z.N.x.a.y.%.E d 3 @ s B.U.U.r.v ;.:.1.1.",
"!.H.U.H.w.o : P +.=.a.l.C.D.F.L.T.W.T.T.T.W.T.W.W.W.W.W.T.T.L.F.J.C.C.V.m.z.j.$.A A.U.U.e.c ;.>.<.1.",
"!.K.U.H.7.G a.l.V.D.F.L.I.T.T.W.W.T.T.W.T.T.W.W.W.T.W.W.W.W.W.W.T.W.T.L.D.V.Z.n.) B.U.U.e.c :.:.1.1.",
"!.U.U.H.4.] z.z.J.T.T.T.T.T.T.T.T.W.W.W.T.W.W.W.W.W.W.T.W.T.W.T.T.T.W.W.C.z.z.X.m G.U.U.e.v ;.:.<.1.",
"!.U.U.H.5.9 6.f.J.T.I.T.T.T.T.T.W.T.W.T.W.W.W.W.W.W.T.T.W.W.W.W.W.T.W.D.z.z.p.  L G.U.U.e.v ;.>.1.1.",
"!.U.U.H.5.O G 6.j.I.T.T.T.T.T.W.W.T.T.W.W.W.W.W.W.W.W.W.W.W.T.W.T.W.J.z.n.j.M % T G.R.U.e.c ;.>.1.1.",
"!.E.U.G. .- : ~ 0.l.T.T.T.W.W.T.T.W.W.W.T.W.W.W.W.W.W.W.W.W.W.W.W.L.v.z.z.H % > I G.Y.U.w.v ;.:.<.1.",
"!.E.U.G. .@ i - ` 0.z.T.T.T.T.W.W.W.W.T.W.W.W.W.W.W.W.W.W.W.W.W.T.V.z.n.} @ i : T G.E.U.q.c ;.:.1.1.",
"!.E.P.G.{ : i < = ' i.C.W.T.T.W.W.W.W.W.W.W.W.W.W.W.W.W.W.W.W.W.Z.z.c.9.O 5 7 : R G.U.U.q.v ;.>.1.1.",
"n.E.P.A.{ @ 8 5 < w ,.p.G.W.T.W.W.W.W.W.W.W.W.W.Q.W.Q.W.W.W.W.G.c.c.p.= < 5 7 % R G.Y.U.q.-.;.;.1.1.",
"n.E.U.G._ : 8 2 8 > M ,.f.L.W.T.W.W.W.W.Q.Q.W.W.Q.W.W.W.Q.Q.J.m.N.h.s , 8 1 7 : R J.Y.U.q.;.;.;.1.1.",
"n.E.U.A._ : 8 5 2 5 > C 4.A.W.W.W.W.W.Q.W.W.W.W.W.W.Q.Q.W.Q.G.n.x.H > 8 2 2 7 : W J.E.U.q.-.;.;.1.1.",
"M.E.U.A./ : 8 2 2 5 2 * 3.G.W.T.W.W.W.W.W.Q.W.W.W.Q.W.W.Q.Q.J.z.l.s < 5 2 2 7 % W P.E.I.q.c ;.;.1.1.",
"M.E.P.G.G : 8 2 2 5 > u 4.G.W.T.W.W.W.W.W.W.Q.Q.W.W.Q.W.W.Q.L.z.z.U < 5 2 2 8 % o.L.R.U.q.x ;.;.2.1.",
"M.E.P.B.H , 8 2 2 5 < a 7.H.W.W.W.W.W.W.W.W.Q.Q.Q.Q.W.W.W.Q.I.z.n.R > 8 2 5 7 % o.J.E.P.q.c ;.;.1.;.",
"M.E.P.M.D , 8 2 2 5 > L 7.T.W.T.W.W.W.W.W.W.W.W.W.W.W.Q.W.W.T.z.c.W > 8 2 2 7 % O.L.R.U.2.c ;.;.1.1.",
"B.E.P.B.F > 8 2 2 8 > I 7.T.W.W.W.W.W.W.Q.W.Q.Q.Q.Q.W.W.W.W.T.v.M.O.> 8 2 2 7 % @.P.E.P.q.-.;.;.2.;.",
"B.E.P.M.A , 8 2 2 8 > F g.T.T.T.T.W.W.W.L.A.A.L.W.Q.W.W.W.Q.T.V.m.#.: 8 2 2 7 % @.P.E.P.2.-.;.;.1.<.",
"B.E.K.M.V , 5 2 2 8 > H k.T.T.W.W.T.L.M.j.f.f.x.N.J.T.Q.W.W.T.m.V.&.> 8 2 2 7 % #.P.E.P.2.c ;.;.1.>.",
"B.E.K.M.M > 5 2 2 8 > _ n.W.W.T.G.z.j.h.f.0.4.s.h.j.z.A.I.W.W.Z.N.t.% 8 2 2 7 % &.P.R.P.2.c ;.;.<.>.",
"B.Y.U.n.V : 5 2 2 5 : _ z.J.A.j.j.h.d.6.` M & S [ 0.g.j.l.B.D.N.Z.t.: 5 2 2 7 @ 9.R.R.P.1.c ;.;.<.>.",
"B.U.K.M.M , 8 2 5 5 : | l.j.j.h.d.5.) w @ > 2 > : y ( 5.d.j.x.c.Z.u.% 5 2 5 i O j.R.R.P.1.c ;.;.1.>.",
"B.U.P.I.t.o 7 4 1 2 ; 5.j.h.s.3.G t % > 5 5 5 8 8 > > $ V { s.l.N.d.$ 2 4 8 @ =.T.R.R.P.<.c ;.-.1.;.",
"B.U.U.Y.I.} @ i 7 8 3 | w.[ F & % 5 i i 8 8 8 8 8 8 i 8 > % w / t.X.$ i 7 O u.T.E.E.E.H.>.c -.;.<.>.",
"n.U.U.U.E.I.( O % % % o . X % : > % % % % % : % % % % % % > % O X o % O O a.E.E.R.Y.U.B.;.v -.;.,.:.",
"<.K.P.P.U.Y.F.X.O.O.Q Q E +.W Q W O.W Q O.+.O.+.+.+.+.@.@.@.@.#.%.=.$.t.m.E.E.E.R.U.B.r.1.c -.-.1.;.",
"z q.H.U.P.U.R.Y.I.I.I.I.I.I.I.I.I.U.I.I.Y.I.I.Y.Y.I.T.Y.I.T.E.E.Y.T.E.E.E.E.Y.U.P.M.r.r.1.-.-.;.<.:.",
"b <.8.K.U.U.U.U.U.U.U.U.U.Y.U.E.Y.E.E.E.E.U.E.E.E.E.Y.E.E.E.E.E.Y.Y.E.E.E.E.E.U.M.r.r.r.1.c -.;.<.;.",
"!.<.v e.G.K.K.K.P.P.P.P.U.P.P.U.P.U.U.U.U.U.U.U.U.U.U.U.U.U.P.P.P.U.P.P.P.J.H.M.r.d.r.r.1.c v ;.<.;.",
"!.c :.c :.:.<.<.<.2.1.2.2.2.1.2.1.1.1.2.2.1.1.1.1.1.1.1.1.1.1.<.,.<.<.<.;.>.;.;.>.1.1.2.:.c -.;.1.;.",
"!.!.j c z j j l j j j j j j j j j j k k j j j j j j j k j j j j j j j j j j j j k k l k k c v -.1.;.",
"!.!.!.!.l v c z z z l z z l z z z z z z x x z z z z z l l z l l l l k l l l l l l k l l k x c -.1.b ",
"!.!.!.!.!.!.l v c z z l l z z l l z l l z l z l l l z l l z l l l l l l l k l l k l k l k k k c <.!.",
"!.!.!.!.!.!.!.!.l c v b b v c c c c c c c c z c c z z c l z l z l c l z l l z l l z z c l c c v ;.!.",
"!.!.!.!.!.!.!.!.!.!.!.l l l c l l l l l l l l l l z l z x x x l l l z l l l l l l l k l l k l k !.!."
};
